<svg width="627" height="75" viewBox="0 0 627 75" fill="none" xmlns="http://www.w3.org/2000/svg">
<mask id="path-1-outside-1_1_4" maskUnits="userSpaceOnUse" x="-1" y="-1" width="629" height="77" fill="black">
<rect fill="white" x="-1" y="-1" width="629" height="77"/>
<path d="M0.6875 74V1.27273H53.1023V17.1818H20.4318V29.6818H50.4034V45.5909H20.4318V58.0909H52.9602V74H0.6875ZM84.0593 1.27273L95.9911 22.4375H96.5593L108.633 1.27273H130.65L108.917 37.6364L131.502 74H108.917L96.5593 52.4091H95.9911L83.6332 74H61.19L83.4911 37.6364L61.9002 1.27273H84.0593ZM139.164 74V1.27273H170.556C175.954 1.27273 180.677 2.33807 184.725 4.46875C188.773 6.59943 191.922 9.59422 194.171 13.4531C196.42 17.312 197.545 21.822 197.545 26.983C197.545 32.1913 196.385 36.7012 194.065 40.5128C191.768 44.3243 188.537 47.2599 184.37 49.3196C180.227 51.3793 175.386 52.4091 169.846 52.4091H151.096V37.0682H165.869C168.189 37.0682 170.165 36.6657 171.799 35.8608C173.456 35.0322 174.723 33.8603 175.599 32.3452C176.498 30.83 176.948 29.0426 176.948 26.983C176.948 24.8996 176.498 23.1241 175.599 21.6562C174.723 20.1648 173.456 19.0284 171.799 18.2472C170.165 17.4422 168.189 17.0398 165.869 17.0398H158.908V74H139.164ZM204.789 74V1.27273H257.204V17.1818H224.533V29.6818H254.505V45.5909H224.533V58.0909H257.062V74H204.789ZM266.996 74V1.27273H298.388C303.786 1.27273 308.509 2.25521 312.557 4.22017C316.605 6.18513 319.754 9.0142 322.003 12.7074C324.252 16.4006 325.377 20.8276 325.377 25.9886C325.377 31.197 324.217 35.5885 321.897 39.1634C319.6 42.7382 316.369 45.437 312.202 47.2599C308.059 49.0829 303.218 49.9943 297.678 49.9943H278.928V34.6534H293.701C296.021 34.6534 297.998 34.3693 299.631 33.8011C301.288 33.2093 302.555 32.2741 303.431 30.9957C304.33 29.7173 304.78 28.0483 304.78 25.9886C304.78 23.9053 304.33 22.2126 303.431 20.9105C302.555 19.5848 301.288 18.6141 299.631 17.9986C297.998 17.3594 296.021 17.0398 293.701 17.0398H286.74V74H266.996ZM309.61 40.6193L327.792 74H306.343L288.587 40.6193H309.61ZM353.537 1.27273V74H333.793V1.27273H353.537ZM362.895 74V1.27273H415.309V17.1818H382.639V29.6818H412.61V45.5909H382.639V58.0909H415.167V74H362.895ZM488.028 1.27273V74H471.55L445.272 35.7898H444.846V74H425.102V1.27273H441.863L467.715 39.3409H468.283V1.27273H488.028ZM565.265 28.5455H545.237C545.094 26.8883 544.716 25.3849 544.1 24.0355C543.508 22.6861 542.68 21.526 541.614 20.5554C540.573 19.5611 539.306 18.8035 537.815 18.2827C536.323 17.7382 534.63 17.4659 532.737 17.4659C529.422 17.4659 526.617 18.2708 524.32 19.8807C522.048 21.4905 520.319 23.7988 519.136 26.8054C517.976 29.812 517.396 33.4223 517.396 37.6364C517.396 42.0871 517.987 45.8158 519.171 48.8224C520.379 51.8054 522.119 54.0545 524.391 55.5696C526.664 57.0611 529.398 57.8068 532.594 57.8068C534.417 57.8068 536.051 57.5819 537.495 57.1321C538.939 56.6586 540.194 55.9839 541.259 55.108C542.325 54.232 543.189 53.1785 543.852 51.9474C544.538 50.6927 545 49.2841 545.237 47.7216L565.265 47.8636C565.028 50.9413 564.164 54.0781 562.673 57.2741C561.181 60.4465 559.062 63.3821 556.316 66.081C553.594 68.7562 550.22 70.9105 546.195 72.544C542.171 74.1776 537.495 74.9943 532.168 74.9943C525.492 74.9943 519.503 73.562 514.2 70.6974C508.92 67.8329 504.742 63.6188 501.664 58.0554C498.61 52.492 497.083 45.6856 497.083 37.6364C497.083 29.5398 498.646 22.7216 501.771 17.1818C504.896 11.6184 509.11 7.41619 514.413 4.57528C519.716 1.7107 525.634 0.278406 532.168 0.278406C536.761 0.278406 540.987 0.905773 544.846 2.16051C548.705 3.41524 552.09 5.25 555.002 7.66477C557.914 10.0559 560.258 13.0033 562.033 16.5071C563.809 20.0109 564.886 24.0237 565.265 28.5455ZM574.223 74V1.27273H626.637V17.1818H593.967V29.6818H623.939V45.5909H593.967V58.0909H626.495V74H574.223Z"/>
</mask>
<path d="M0.6875 74H-0.3125V75H0.6875V74ZM0.6875 1.27273V0.272725H-0.3125V1.27273H0.6875ZM53.1023 1.27273H54.1023V0.272725H53.1023V1.27273ZM53.1023 17.1818V18.1818H54.1023V17.1818H53.1023ZM20.4318 17.1818V16.1818H19.4318V17.1818H20.4318ZM20.4318 29.6818H19.4318V30.6818H20.4318V29.6818ZM50.4034 29.6818H51.4034V28.6818H50.4034V29.6818ZM50.4034 45.5909V46.5909H51.4034V45.5909H50.4034ZM20.4318 45.5909V44.5909H19.4318V45.5909H20.4318ZM20.4318 58.0909H19.4318V59.0909H20.4318V58.0909ZM52.9602 58.0909H53.9602V57.0909H52.9602V58.0909ZM52.9602 74V75H53.9602V74H52.9602ZM1.6875 74V1.27273H-0.3125V74H1.6875ZM0.6875 2.27273H53.1023V0.272725H0.6875V2.27273ZM52.1023 1.27273V17.1818H54.1023V1.27273H52.1023ZM53.1023 16.1818H20.4318V18.1818H53.1023V16.1818ZM19.4318 17.1818V29.6818H21.4318V17.1818H19.4318ZM20.4318 30.6818H50.4034V28.6818H20.4318V30.6818ZM49.4034 29.6818V45.5909H51.4034V29.6818H49.4034ZM50.4034 44.5909H20.4318V46.5909H50.4034V44.5909ZM19.4318 45.5909V58.0909H21.4318V45.5909H19.4318ZM20.4318 59.0909H52.9602V57.0909H20.4318V59.0909ZM51.9602 58.0909V74H53.9602V58.0909H51.9602ZM52.9602 73H0.6875V75H52.9602V73ZM84.0593 1.27273L84.9304 0.781631L84.6435 0.272725H84.0593V1.27273ZM95.9911 22.4375L95.12 22.9286L95.4069 23.4375H95.9911V22.4375ZM96.5593 22.4375V23.4375H97.1401L97.4279 22.933L96.5593 22.4375ZM108.633 1.27273V0.272725H108.052L107.765 0.777214L108.633 1.27273ZM130.65 1.27273L131.509 1.78574L132.413 0.272725H130.65V1.27273ZM108.917 37.6364L108.059 37.1233L107.746 37.6464L108.068 38.164L108.917 37.6364ZM131.502 74V75H133.301L132.352 73.4724L131.502 74ZM108.917 74L108.049 74.4968L108.337 75H108.917V74ZM96.5593 52.4091L97.4272 51.9123L97.1392 51.4091H96.5593V52.4091ZM95.9911 52.4091V51.4091H95.4113L95.1232 51.9123L95.9911 52.4091ZM83.6332 74V75H84.213L84.5011 74.4968L83.6332 74ZM61.19 74L60.3375 73.4772L59.4036 75H61.19V74ZM83.4911 37.6364L84.3436 38.1592L84.6591 37.6447L84.351 37.1258L83.4911 37.6364ZM61.9002 1.27273V0.272725H60.1435L61.0404 1.78326L61.9002 1.27273ZM83.1882 1.76382L95.12 22.9286L96.8622 21.9464L84.9304 0.781631L83.1882 1.76382ZM95.9911 23.4375H96.5593V21.4375H95.9911V23.4375ZM97.4279 22.933L109.502 1.76824L107.765 0.777214L95.6907 21.942L97.4279 22.933ZM108.633 2.27273H130.65V0.272725H108.633V2.27273ZM129.792 0.759709L108.059 37.1233L109.776 38.1494L131.509 1.78574L129.792 0.759709ZM108.068 38.164L130.653 74.5276L132.352 73.4724L109.767 37.1088L108.068 38.164ZM131.502 73H108.917V75H131.502V73ZM109.785 73.5032L97.4272 51.9123L95.6914 52.9058L108.049 74.4968L109.785 73.5032ZM96.5593 51.4091H95.9911V53.4091H96.5593V51.4091ZM95.1232 51.9123L82.7653 73.5032L84.5011 74.4968L96.859 52.9058L95.1232 51.9123ZM83.6332 73H61.19V75H83.6332V73ZM62.0424 74.5228L84.3436 38.1592L82.6387 37.1136L60.3375 73.4772L62.0424 74.5228ZM84.351 37.1258L62.7601 0.762186L61.0404 1.78326L82.6313 38.1469L84.351 37.1258ZM61.9002 2.27273H84.0593V0.272725H61.9002V2.27273ZM139.164 74H138.164V75H139.164V74ZM139.164 1.27273V0.272725H138.164V1.27273H139.164ZM184.725 4.46875L184.259 5.35367L184.259 5.35367L184.725 4.46875ZM194.171 13.4531L195.035 12.9496L195.035 12.9496L194.171 13.4531ZM194.065 40.5128L193.21 39.9928L193.208 39.9967L194.065 40.5128ZM184.37 49.3196L183.927 48.4231L183.925 48.4242L184.37 49.3196ZM151.096 52.4091H150.096V53.4091H151.096V52.4091ZM151.096 37.0682V36.0682H150.096V37.0682H151.096ZM171.799 35.8608L172.241 36.7578L172.246 36.7552L171.799 35.8608ZM175.599 32.3452L174.739 31.8346L174.733 31.8447L175.599 32.3452ZM175.599 21.6562L174.736 22.1627L174.741 22.1708L174.746 22.1788L175.599 21.6562ZM171.799 18.2472L171.357 19.1442L171.365 19.148L171.373 19.1517L171.799 18.2472ZM158.908 17.0398V16.0398H157.908V17.0398H158.908ZM158.908 74V75H159.908V74H158.908ZM140.164 74V1.27273H138.164V74H140.164ZM139.164 2.27273H170.556V0.272725H139.164V2.27273ZM170.556 2.27273C175.821 2.27273 180.378 3.31107 184.259 5.35367L185.191 3.58383C180.975 1.36506 176.087 0.272725 170.556 0.272725V2.27273ZM184.259 5.35367C188.146 7.39929 191.155 10.2638 193.307 13.9567L195.035 12.9496C192.689 8.92465 189.401 5.79957 185.191 3.58383L184.259 5.35367ZM193.307 13.9567C195.454 17.6403 196.545 21.971 196.545 26.983H198.545C198.545 21.6729 197.386 16.9838 195.035 12.9496L193.307 13.9567ZM196.545 26.983C196.545 32.039 195.42 36.3626 193.21 39.9928L194.919 41.0327C197.349 37.0399 198.545 32.3436 198.545 26.983H196.545ZM193.208 39.9967C191.015 43.6371 187.93 46.4442 183.927 48.4231L184.813 50.2161C189.143 48.0757 192.522 45.0116 194.921 41.0288L193.208 39.9967ZM183.925 48.4242C179.945 50.4028 175.261 51.4091 169.846 51.4091V53.4091C175.51 53.4091 180.509 52.3558 184.815 50.215L183.925 48.4242ZM169.846 51.4091H151.096V53.4091H169.846V51.4091ZM152.096 52.4091V37.0682H150.096V52.4091H152.096ZM151.096 38.0682H165.869V36.0682H151.096V38.0682ZM165.869 38.0682C168.301 38.0682 170.438 37.6464 172.241 36.7578L171.357 34.9638C169.893 35.685 168.076 36.0682 165.869 36.0682V38.0682ZM172.246 36.7552C174.068 35.8445 175.485 34.5404 176.464 32.8457L174.733 31.8447C173.961 33.1802 172.845 34.2199 171.352 34.9664L172.246 36.7552ZM176.459 32.8557C177.464 31.1616 177.948 29.1916 177.948 26.983H175.948C175.948 28.8936 175.532 30.4984 174.739 31.8346L176.459 32.8557ZM177.948 26.983C177.948 24.7541 177.466 22.7889 176.451 21.1337L174.746 22.1788C175.531 23.4592 175.948 25.0452 175.948 26.983H177.948ZM176.461 21.1498C175.477 19.4743 174.053 18.2043 172.225 17.3426L171.373 19.1517C172.859 19.8525 173.969 20.8553 174.736 22.1627L176.461 21.1498ZM172.241 17.3501C170.438 16.4615 168.301 16.0398 165.869 16.0398V18.0398C168.076 18.0398 169.893 18.423 171.357 19.1442L172.241 17.3501ZM165.869 16.0398H158.908V18.0398H165.869V16.0398ZM157.908 17.0398V74H159.908V17.0398H157.908ZM158.908 73H139.164V75H158.908V73ZM204.789 74H203.789V75H204.789V74ZM204.789 1.27273V0.272725H203.789V1.27273H204.789ZM257.204 1.27273H258.204V0.272725H257.204V1.27273ZM257.204 17.1818V18.1818H258.204V17.1818H257.204ZM224.533 17.1818V16.1818H223.533V17.1818H224.533ZM224.533 29.6818H223.533V30.6818H224.533V29.6818ZM254.505 29.6818H255.505V28.6818H254.505V29.6818ZM254.505 45.5909V46.5909H255.505V45.5909H254.505ZM224.533 45.5909V44.5909H223.533V45.5909H224.533ZM224.533 58.0909H223.533V59.0909H224.533V58.0909ZM257.062 58.0909H258.062V57.0909H257.062V58.0909ZM257.062 74V75H258.062V74H257.062ZM205.789 74V1.27273H203.789V74H205.789ZM204.789 2.27273H257.204V0.272725H204.789V2.27273ZM256.204 1.27273V17.1818H258.204V1.27273H256.204ZM257.204 16.1818H224.533V18.1818H257.204V16.1818ZM223.533 17.1818V29.6818H225.533V17.1818H223.533ZM224.533 30.6818H254.505V28.6818H224.533V30.6818ZM253.505 29.6818V45.5909H255.505V29.6818H253.505ZM254.505 44.5909H224.533V46.5909H254.505V44.5909ZM223.533 45.5909V58.0909H225.533V45.5909H223.533ZM224.533 59.0909H257.062V57.0909H224.533V59.0909ZM256.062 58.0909V74H258.062V58.0909H256.062ZM257.062 73H204.789V75H257.062V73ZM266.996 74H265.996V75H266.996V74ZM266.996 1.27273V0.272725H265.996V1.27273H266.996ZM312.557 4.22017L312.121 5.1198L312.557 4.22017ZM322.003 12.7074L322.857 12.1873L322.857 12.1873L322.003 12.7074ZM321.897 39.1634L321.058 38.6189L321.055 38.6229L321.897 39.1634ZM312.202 47.2599L311.801 46.3438L311.799 46.3446L312.202 47.2599ZM278.928 49.9943H277.928V50.9943H278.928V49.9943ZM278.928 34.6534V33.6534H277.928V34.6534H278.928ZM299.631 33.8011L299.96 34.7457L299.967 34.7429L299.631 33.8011ZM303.431 30.9957L302.613 30.4202L302.606 30.4305L303.431 30.9957ZM303.431 20.9105L302.596 21.4618L302.602 21.4704L302.608 21.4789L303.431 20.9105ZM299.631 17.9986L299.267 18.9298L299.275 18.933L299.283 18.936L299.631 17.9986ZM286.74 17.0398V16.0398H285.74V17.0398H286.74ZM286.74 74V75H287.74V74H286.74ZM309.61 40.6193L310.488 40.141L310.204 39.6193H309.61V40.6193ZM327.792 74V75H329.475L328.67 73.5217L327.792 74ZM306.343 74L305.46 74.4696L305.742 75H306.343V74ZM288.587 40.6193V39.6193H286.922L287.704 41.0889L288.587 40.6193ZM267.996 74V1.27273H265.996V74H267.996ZM266.996 2.27273H298.388V0.272725H266.996V2.27273ZM298.388 2.27273C303.664 2.27273 308.233 3.23278 312.121 5.1198L312.994 3.32054C308.785 1.27764 303.907 0.272725 298.388 0.272725V2.27273ZM312.121 5.1198C316.004 7.00453 319.004 9.70515 321.149 13.2275L322.857 12.1873C320.504 8.32325 317.207 5.36573 312.994 3.32054L312.121 5.1198ZM321.149 13.2275C323.286 16.736 324.377 20.9753 324.377 25.9886H326.377C326.377 20.68 325.219 16.0651 322.857 12.1873L321.149 13.2275ZM324.377 25.9886C324.377 31.0469 323.251 35.239 321.058 38.6189L322.735 39.7078C325.182 35.9381 326.377 31.347 326.377 25.9886H324.377ZM321.055 38.6229C318.873 42.0199 315.801 44.5941 311.801 46.3438L312.603 48.1761C316.937 46.28 320.327 43.4564 322.738 39.7038L321.055 38.6229ZM311.799 46.3446C307.808 48.1007 303.109 48.9943 297.678 48.9943V50.9943C303.326 50.9943 308.31 50.0651 312.605 48.1753L311.799 46.3446ZM297.678 48.9943H278.928V50.9943H297.678V48.9943ZM279.928 49.9943V34.6534H277.928V49.9943H279.928ZM278.928 35.6534H293.701V33.6534H278.928V35.6534ZM293.701 35.6534C296.097 35.6534 298.191 35.3607 299.96 34.7456L299.303 32.8566C297.804 33.3779 295.945 33.6534 293.701 33.6534V35.6534ZM299.967 34.7429C301.795 34.0901 303.245 33.0363 304.256 31.561L302.606 30.4305C301.865 31.512 300.781 32.3284 299.295 32.8594L299.967 34.7429ZM304.249 31.5712C305.299 30.0782 305.78 28.1895 305.78 25.9886H303.78C303.78 27.907 303.362 29.3565 302.613 30.4202L304.249 31.5712ZM305.78 25.9886C305.78 23.7657 305.3 21.8568 304.253 20.3421L302.608 21.4789C303.361 22.5684 303.78 24.0449 303.78 25.9886H305.78ZM304.265 20.3593C303.259 18.8366 301.812 17.7418 299.979 17.0612L299.283 18.936C300.765 19.4864 301.851 20.3329 302.596 21.4618L304.265 20.3593ZM299.995 17.0673C298.215 16.3706 296.107 16.0398 293.701 16.0398V18.0398C295.934 18.0398 297.78 18.3481 299.267 18.9298L299.995 17.0673ZM293.701 16.0398H286.74V18.0398H293.701V16.0398ZM285.74 17.0398V74H287.74V17.0398H285.74ZM286.74 73H266.996V75H286.74V73ZM308.732 41.0976L326.913 74.4783L328.67 73.5217L310.488 40.141L308.732 41.0976ZM327.792 73H306.343V75H327.792V73ZM307.226 73.5304L289.47 40.1497L287.704 41.0889L305.46 74.4696L307.226 73.5304ZM288.587 41.6193H309.61V39.6193H288.587V41.6193ZM353.537 1.27273H354.537V0.272725H353.537V1.27273ZM353.537 74V75H354.537V74H353.537ZM333.793 74H332.793V75H333.793V74ZM333.793 1.27273V0.272725H332.793V1.27273H333.793ZM352.537 1.27273V74H354.537V1.27273H352.537ZM353.537 73H333.793V75H353.537V73ZM334.793 74V1.27273H332.793V74H334.793ZM333.793 2.27273H353.537V0.272725H333.793V2.27273ZM362.895 74H361.895V75H362.895V74ZM362.895 1.27273V0.272725H361.895V1.27273H362.895ZM415.309 1.27273H416.309V0.272725H415.309V1.27273ZM415.309 17.1818V18.1818H416.309V17.1818H415.309ZM382.639 17.1818V16.1818H381.639V17.1818H382.639ZM382.639 29.6818H381.639V30.6818H382.639V29.6818ZM412.61 29.6818H413.61V28.6818H412.61V29.6818ZM412.61 45.5909V46.5909H413.61V45.5909H412.61ZM382.639 45.5909V44.5909H381.639V45.5909H382.639ZM382.639 58.0909H381.639V59.0909H382.639V58.0909ZM415.167 58.0909H416.167V57.0909H415.167V58.0909ZM415.167 74V75H416.167V74H415.167ZM363.895 74V1.27273H361.895V74H363.895ZM362.895 2.27273H415.309V0.272725H362.895V2.27273ZM414.309 1.27273V17.1818H416.309V1.27273H414.309ZM415.309 16.1818H382.639V18.1818H415.309V16.1818ZM381.639 17.1818V29.6818H383.639V17.1818H381.639ZM382.639 30.6818H412.61V28.6818H382.639V30.6818ZM411.61 29.6818V45.5909H413.61V29.6818H411.61ZM412.61 44.5909H382.639V46.5909H412.61V44.5909ZM381.639 45.5909V58.0909H383.639V45.5909H381.639ZM382.639 59.0909H415.167V57.0909H382.639V59.0909ZM414.167 58.0909V74H416.167V58.0909H414.167ZM415.167 73H362.895V75H415.167V73ZM488.028 1.27273H489.028V0.272725H488.028V1.27273ZM488.028 74V75H489.028V74H488.028ZM471.55 74L470.726 74.5667L471.024 75H471.55V74ZM445.272 35.7898L446.096 35.2231L445.798 34.7898H445.272V35.7898ZM444.846 35.7898V34.7898H443.846V35.7898H444.846ZM444.846 74V75H445.846V74H444.846ZM425.102 74H424.102V75H425.102V74ZM425.102 1.27273V0.272725H424.102V1.27273H425.102ZM441.863 1.27273L442.69 0.710922L442.393 0.272725H441.863V1.27273ZM467.715 39.3409L466.888 39.9027L467.186 40.3409H467.715V39.3409ZM468.283 39.3409V40.3409H469.283V39.3409H468.283ZM468.283 1.27273V0.272725H467.283V1.27273H468.283ZM487.028 1.27273V74H489.028V1.27273H487.028ZM488.028 73H471.55V75H488.028V73ZM472.374 73.4333L446.096 35.2231L444.448 36.3564L470.726 74.5667L472.374 73.4333ZM445.272 34.7898H444.846V36.7898H445.272V34.7898ZM443.846 35.7898V74H445.846V35.7898H443.846ZM444.846 73H425.102V75H444.846V73ZM426.102 74V1.27273H424.102V74H426.102ZM425.102 2.27273H441.863V0.272725H425.102V2.27273ZM441.036 1.83453L466.888 39.9027L468.542 38.7791L442.69 0.710922L441.036 1.83453ZM467.715 40.3409H468.283V38.3409H467.715V40.3409ZM469.283 39.3409V1.27273H467.283V39.3409H469.283ZM468.283 2.27273H488.028V0.272725H468.283V2.27273ZM565.265 28.5455V29.5455H566.352L566.261 28.462L565.265 28.5455ZM545.237 28.5455L544.24 28.6309L544.319 29.5455H545.237V28.5455ZM544.1 24.0355L543.184 24.4372L543.187 24.4439L543.19 24.4505L544.1 24.0355ZM541.614 20.5554L540.924 21.2787L540.932 21.2868L540.941 21.2946L541.614 20.5554ZM537.815 18.2827L537.472 19.2221L537.485 19.2268L537.815 18.2827ZM524.32 19.8807L523.746 19.0618L523.742 19.0647L524.32 19.8807ZM519.136 26.8054L518.205 26.4391L518.203 26.4454L519.136 26.8054ZM519.171 48.8224L518.241 49.1888L518.244 49.1976L519.171 48.8224ZM524.391 55.5696L523.837 56.4017L523.843 56.4056L524.391 55.5696ZM537.495 57.1321L537.792 58.0869L537.8 58.0846L537.807 58.0823L537.495 57.1321ZM541.259 55.108L541.894 55.8804L541.894 55.8804L541.259 55.108ZM543.852 51.9474L542.974 51.4674L542.971 51.4733L543.852 51.9474ZM545.237 47.7216L545.244 46.7216L544.378 46.7155L544.248 47.5718L545.237 47.7216ZM565.265 47.8636L566.262 47.9403L566.344 46.8713L565.272 46.8637L565.265 47.8636ZM562.673 57.2741L563.578 57.6996L563.579 57.697L562.673 57.2741ZM556.316 66.081L557.017 66.7942L557.017 66.7942L556.316 66.081ZM546.195 72.544L545.819 71.6174L546.195 72.544ZM514.2 70.6974L513.723 71.5764L513.724 71.5773L514.2 70.6974ZM501.664 58.0554L500.787 58.5366L500.789 58.5395L501.664 58.0554ZM501.771 17.1818L502.642 17.6731L502.642 17.6716L501.771 17.1818ZM514.413 4.57528L514.885 5.45677L514.888 5.45512L514.413 4.57528ZM544.846 2.16051L545.155 1.20952L545.155 1.20952L544.846 2.16051ZM555.002 7.66477L554.364 8.43454L554.368 8.43761L555.002 7.66477ZM562.033 16.5071L561.141 16.9591L561.141 16.9591L562.033 16.5071ZM565.265 27.5455H545.237V29.5455H565.265V27.5455ZM546.233 28.4601C546.082 26.7026 545.678 25.0859 545.01 23.6205L543.19 24.4505C543.753 25.684 544.107 27.0739 544.24 28.6309L546.233 28.4601ZM545.016 23.6338C544.369 22.1591 543.459 20.8833 542.288 19.8162L540.941 21.2946C541.9 22.1688 542.647 23.213 543.184 24.4372L545.016 23.6338ZM542.305 19.832C541.15 18.73 539.757 17.9018 538.144 17.3386L537.485 19.2268C538.855 19.7052 539.995 20.3921 540.924 21.2787L542.305 19.832ZM538.158 17.3433C536.537 16.7518 534.725 16.4659 532.737 16.4659V18.4659C534.535 18.4659 536.109 18.7245 537.472 19.222L538.158 17.3433ZM532.737 16.4659C529.255 16.4659 526.24 17.3139 523.746 19.0618L524.894 20.6995C526.994 19.2278 529.589 18.4659 532.737 18.4659V16.4659ZM523.742 19.0647C521.287 20.804 519.448 23.2811 518.205 26.4391L520.066 27.1717C521.19 24.3164 522.808 22.177 524.898 20.6967L523.742 19.0647ZM518.203 26.4454C516.987 29.5962 516.396 33.3352 516.396 37.6364H518.396C518.396 33.5095 518.964 30.0278 520.069 27.1654L518.203 26.4454ZM516.396 37.6364C516.396 42.1684 516.997 46.0305 518.241 49.1888L520.102 48.4561C518.978 45.6012 518.396 42.0058 518.396 37.6364H516.396ZM518.244 49.1976C519.513 52.3329 521.369 54.7564 523.837 56.4017L524.946 54.7376C522.869 53.3526 521.244 51.2779 520.098 48.4473L518.244 49.1976ZM523.843 56.4056C526.305 58.0218 529.238 58.8068 532.594 58.8068V56.8068C529.558 56.8068 527.023 56.1004 524.94 54.7336L523.843 56.4056ZM532.594 58.8068C534.498 58.8068 536.235 58.5721 537.792 58.0869L537.198 56.1773C535.867 56.5918 534.337 56.8068 532.594 56.8068V58.8068ZM537.807 58.0823C539.357 57.5741 540.724 56.8428 541.894 55.8804L540.624 54.3355C539.664 55.125 538.522 55.7431 537.183 56.1819L537.807 58.0823ZM541.894 55.8804C543.061 54.9207 544.008 53.7654 544.732 52.4215L542.971 51.4733C542.369 52.5916 541.588 53.5433 540.624 54.3355L541.894 55.8804ZM544.729 52.4275C545.477 51.0598 545.973 49.5375 546.225 47.8714L544.248 47.5718C544.027 49.0306 543.599 50.3256 542.974 51.4674L544.729 52.4275ZM545.229 48.7216L565.258 48.8636L565.272 46.8637L545.244 46.7216L545.229 48.7216ZM564.268 47.7869C564.042 50.7289 563.214 53.7489 561.766 56.8513L563.579 57.697C565.114 54.4074 566.015 51.1537 566.262 47.9403L564.268 47.7869ZM561.768 56.8487C560.331 59.9037 558.285 62.7438 555.615 65.3677L557.017 66.7942C559.839 64.0204 562.031 60.9893 563.578 57.6996L561.768 56.8487ZM555.615 65.3677C552.998 67.9394 549.739 70.0264 545.819 71.6174L546.571 73.4706C550.701 71.7947 554.189 69.5729 557.017 66.7942L555.615 65.3677ZM545.819 71.6174C541.938 73.1929 537.394 73.9943 532.168 73.9943V75.9943C537.596 75.9943 542.404 75.1623 546.571 73.4706L545.819 71.6174ZM532.168 73.9943C525.64 73.9943 519.817 72.5951 514.675 69.8176L513.724 71.5773C519.189 74.529 525.344 75.9943 532.168 75.9943V73.9943ZM514.676 69.8185C509.575 67.0503 505.53 62.9781 502.539 57.5713L500.789 58.5395C503.953 64.2596 508.266 68.6154 513.723 71.5764L514.676 69.8185ZM502.541 57.5742C499.587 52.1926 498.083 45.5616 498.083 37.6364H496.083C496.083 45.8096 497.634 52.7913 500.787 58.5366L502.541 57.5742ZM498.083 37.6364C498.083 29.6659 499.621 23.0274 502.642 17.6731L500.9 16.6905C497.67 22.4158 496.083 29.4137 496.083 37.6364H498.083ZM502.642 17.6716C505.68 12.2635 509.76 8.20224 514.885 5.45676L513.94 3.6938C508.459 6.63014 504.111 10.9732 500.899 16.6921L502.642 17.6716ZM514.888 5.45512C520.033 2.67594 525.786 1.27841 532.168 1.27841V-0.721594C525.483 -0.721594 519.398 0.745459 513.937 3.69544L514.888 5.45512ZM532.168 1.27841C536.67 1.27841 540.79 1.8932 544.537 3.1115L545.155 1.20952C541.184 -0.0816533 536.852 -0.721594 532.168 -0.721594V1.27841ZM544.537 3.1115C548.284 4.33002 551.556 6.10613 554.364 8.43453L555.64 6.89501C552.624 4.39387 549.125 2.50046 545.155 1.20952L544.537 3.1115ZM554.368 8.43761C557.168 10.737 559.426 13.5736 561.141 16.9591L562.925 16.0551C561.09 12.433 558.66 9.37472 555.637 6.89193L554.368 8.43761ZM561.141 16.9591C562.85 20.3315 563.899 24.2159 564.268 28.6289L566.261 28.462C565.874 23.8315 564.768 19.6902 562.925 16.0551L561.141 16.9591ZM574.223 74H573.223V75H574.223V74ZM574.223 1.27273V0.272725H573.223V1.27273H574.223ZM626.637 1.27273H627.637V0.272725H626.637V1.27273ZM626.637 17.1818V18.1818H627.637V17.1818H626.637ZM593.967 17.1818V16.1818H592.967V17.1818H593.967ZM593.967 29.6818H592.967V30.6818H593.967V29.6818ZM623.939 29.6818H624.939V28.6818H623.939V29.6818ZM623.939 45.5909V46.5909H624.939V45.5909H623.939ZM593.967 45.5909V44.5909H592.967V45.5909H593.967ZM593.967 58.0909H592.967V59.0909H593.967V58.0909ZM626.495 58.0909H627.495V57.0909H626.495V58.0909ZM626.495 74V75H627.495V74H626.495ZM575.223 74V1.27273H573.223V74H575.223ZM574.223 2.27273H626.637V0.272725H574.223V2.27273ZM625.637 1.27273V17.1818H627.637V1.27273H625.637ZM626.637 16.1818H593.967V18.1818H626.637V16.1818ZM592.967 17.1818V29.6818H594.967V17.1818H592.967ZM593.967 30.6818H623.939V28.6818H593.967V30.6818ZM622.939 29.6818V45.5909H624.939V29.6818H622.939ZM623.939 44.5909H593.967V46.5909H623.939V44.5909ZM592.967 45.5909V58.0909H594.967V45.5909H592.967ZM593.967 59.0909H626.495V57.0909H593.967V59.0909ZM625.495 58.0909V74H627.495V58.0909H625.495ZM626.495 73H574.223V75H626.495V73Z" fill="#716969" mask="url(#path-1-outside-1_1_4)"/>
</svg>
