<svg width="539" height="75" viewBox="0 0 539 75" fill="none" xmlns="http://www.w3.org/2000/svg">
<mask id="path-1-outside-1_1_4" maskUnits="userSpaceOnUse" x="-1" y="-1" width="541" height="77" fill="black">
<rect fill="white" x="-1" y="-1" width="541" height="77"/>
<path d="M0.6875 74V1.27273H32.0795C37.4773 1.27273 42.2003 2.33807 46.2486 4.46875C50.2969 6.59943 53.4456 9.59422 55.6946 13.4531C57.9437 17.312 59.0682 21.822 59.0682 26.983C59.0682 32.1913 57.9081 36.7012 55.5881 40.5128C53.2917 44.3243 50.0601 47.2599 45.8935 49.3196C41.7505 51.3793 36.9091 52.4091 31.3693 52.4091H12.6193V37.0682H27.392C29.7121 37.0682 31.6889 36.6657 33.3224 35.8608C34.9796 35.0322 36.2462 33.8603 37.1222 32.3452C38.0218 30.83 38.4716 29.0426 38.4716 26.983C38.4716 24.8996 38.0218 23.1241 37.1222 21.6562C36.2462 20.1648 34.9796 19.0284 33.3224 18.2472C31.6889 17.4422 29.7121 17.0398 27.392 17.0398H20.4318V74H0.6875ZM66.3125 74V1.27273H97.7045C103.102 1.27273 107.825 2.25521 111.874 4.22017C115.922 6.18513 119.071 9.0142 121.32 12.7074C123.569 16.4006 124.693 20.8276 124.693 25.9886C124.693 31.197 123.533 35.5885 121.213 39.1634C118.917 42.7382 115.685 45.437 111.518 47.2599C107.375 49.0829 102.534 49.9943 96.9943 49.9943H78.2443V34.6534H93.017C95.3371 34.6534 97.3139 34.3693 98.9474 33.8011C100.605 33.2093 101.871 32.2741 102.747 30.9957C103.647 29.7173 104.097 28.0483 104.097 25.9886C104.097 23.9053 103.647 22.2126 102.747 20.9105C101.871 19.5848 100.605 18.6141 98.9474 17.9986C97.3139 17.3594 95.3371 17.0398 93.017 17.0398H86.0568V74H66.3125ZM108.926 40.6193L127.108 74H105.659L87.9034 40.6193H108.926ZM203.564 37.6364C203.564 45.733 201.99 52.563 198.841 58.1264C195.692 63.6662 191.443 67.8684 186.092 70.733C180.742 73.5739 174.776 74.9943 168.195 74.9943C161.566 74.9943 155.576 73.562 150.226 70.6974C144.899 67.8092 140.661 63.5952 137.513 58.0554C134.388 52.492 132.825 45.6856 132.825 37.6364C132.825 29.5398 134.388 22.7216 137.513 17.1818C140.661 11.6184 144.899 7.41619 150.226 4.57528C155.576 1.7107 161.566 0.278406 168.195 0.278406C174.776 0.278406 180.742 1.7107 186.092 4.57528C191.443 7.41619 195.692 11.6184 198.841 17.1818C201.99 22.7216 203.564 29.5398 203.564 37.6364ZM183.251 37.6364C183.251 33.2803 182.671 29.6108 181.511 26.6278C180.375 23.6212 178.682 21.3485 176.433 19.8097C174.208 18.2472 171.462 17.4659 168.195 17.4659C164.928 17.4659 162.17 18.2472 159.92 19.8097C157.695 21.3485 156.002 23.6212 154.842 26.6278C153.706 29.6108 153.138 33.2803 153.138 37.6364C153.138 41.9924 153.706 45.6738 154.842 48.6804C156.002 51.6634 157.695 53.9361 159.92 55.4986C162.17 57.0374 164.928 57.8068 168.195 57.8068C171.462 57.8068 174.208 57.0374 176.433 55.4986C178.682 53.9361 180.375 51.6634 181.511 48.6804C182.671 45.6738 183.251 41.9924 183.251 37.6364ZM242.671 1.27273H262.131V51.1307C262.107 55.8655 260.912 60.0322 258.544 63.6307C256.201 67.2055 252.957 69.9991 248.814 72.0114C244.695 74 239.948 74.9943 234.574 74.9943C229.91 74.9943 225.649 74.1894 221.79 72.5795C217.931 70.946 214.854 68.3892 212.557 64.9091C210.261 61.4053 209.124 56.8598 209.148 51.2727H228.892C228.963 53.0956 229.271 54.6345 229.816 55.8892C230.384 57.1439 231.165 58.0909 232.159 58.7301C233.177 59.3456 234.408 59.6534 235.853 59.6534C237.32 59.6534 238.551 59.3338 239.546 58.6946C240.564 58.0554 241.333 57.1084 241.854 55.8537C242.375 54.5753 242.647 53.0009 242.671 51.1307V1.27273ZM271.488 74V1.27273H323.903V17.1818H291.233V29.6818H321.204V45.5909H291.233V58.0909H323.761V74H271.488ZM401.593 28.5455H381.565C381.423 26.8883 381.044 25.3849 380.428 24.0355C379.836 22.6861 379.008 21.526 377.942 20.5554C376.901 19.5611 375.634 18.8035 374.143 18.2827C372.651 17.7382 370.959 17.4659 369.065 17.4659C365.75 17.4659 362.945 18.2708 360.648 19.8807C358.376 21.4905 356.647 23.7988 355.464 26.8054C354.304 29.812 353.724 33.4223 353.724 37.6364C353.724 42.0871 354.316 45.8158 355.499 48.8224C356.707 51.8054 358.447 54.0545 360.719 55.5696C362.992 57.0611 365.727 57.8068 368.923 57.8068C370.746 57.8068 372.379 57.5819 373.823 57.1321C375.267 56.6586 376.522 55.9839 377.587 55.108C378.653 54.232 379.517 53.1785 380.18 51.9474C380.866 50.6927 381.328 49.2841 381.565 47.7216L401.593 47.8636C401.356 50.9413 400.492 54.0781 399.001 57.2741C397.509 60.4465 395.39 63.3821 392.644 66.081C389.922 68.7562 386.548 70.9105 382.523 72.544C378.499 74.1776 373.823 74.9943 368.496 74.9943C361.82 74.9943 355.831 73.562 350.528 70.6974C345.248 67.8329 341.07 63.6188 337.992 58.0554C334.938 52.492 333.411 45.6856 333.411 37.6364C333.411 29.5398 334.974 22.7216 338.099 17.1818C341.224 11.6184 345.438 7.41619 350.741 4.57528C356.044 1.7107 361.962 0.278406 368.496 0.278406C373.089 0.278406 377.315 0.905773 381.174 2.16051C385.033 3.41524 388.418 5.25 391.33 7.66477C394.242 10.0559 396.586 13.0033 398.362 16.5071C400.137 20.0109 401.214 24.0237 401.593 28.5455ZM408.562 17.1818V1.27273H471.772V17.1818H449.897V74H430.437V17.1818H408.562ZM518.408 24C518.218 21.6326 517.33 19.786 515.744 18.4602C514.182 17.1345 511.803 16.4716 508.607 16.4716C506.571 16.4716 504.902 16.7202 503.599 17.2173C502.321 17.6908 501.374 18.3419 500.759 19.1705C500.143 19.9991 499.823 20.946 499.8 22.0114C499.752 22.8873 499.906 23.6804 500.261 24.3906C500.64 25.0772 501.232 25.7045 502.037 26.2727C502.842 26.8172 503.872 27.3144 505.126 27.7642C506.381 28.214 507.873 28.6165 509.601 28.9716L515.567 30.25C519.591 31.1023 523.036 32.2268 525.901 33.6236C528.765 35.0204 531.109 36.6657 532.932 38.5597C534.755 40.4299 536.092 42.5369 536.945 44.8807C537.821 47.2244 538.27 49.7812 538.294 52.5511C538.27 57.3333 537.075 61.3816 534.707 64.696C532.34 68.0104 528.955 70.5317 524.551 72.2599C520.171 73.9882 514.904 74.8523 508.749 74.8523C502.428 74.8523 496.911 73.9171 492.2 72.0469C487.513 70.1766 483.867 67.3002 481.263 63.4176C478.682 59.5114 477.38 54.5161 477.357 48.4318H496.107C496.225 50.6572 496.781 52.5275 497.776 54.0426C498.77 55.5578 500.167 56.706 501.966 57.4872C503.789 58.2685 505.955 58.6591 508.464 58.6591C510.571 58.6591 512.335 58.3987 513.756 57.8778C515.176 57.357 516.253 56.6349 516.987 55.7116C517.721 54.7884 518.1 53.7348 518.124 52.5511C518.1 51.4384 517.733 50.4678 517.023 49.6392C516.336 48.7869 515.2 48.0294 513.614 47.3665C512.027 46.6799 509.885 46.0407 507.186 45.4489L499.942 43.8864C493.502 42.4896 488.424 40.1577 484.707 36.8906C481.014 33.5999 479.179 29.1136 479.203 23.4318C479.179 18.8153 480.411 14.7789 482.896 11.3224C485.406 7.84233 488.874 5.13163 493.301 3.19034C497.752 1.24905 502.854 0.278406 508.607 0.278406C514.478 0.278406 519.556 1.26089 523.841 3.22585C528.126 5.19081 531.429 7.9607 533.749 11.5355C536.092 15.0866 537.276 19.2415 537.3 24H518.408Z"/>
</mask>
<path d="M0.6875 74H-0.3125V75H0.6875V74ZM0.6875 1.27273V0.272725H-0.3125V1.27273H0.6875ZM46.2486 4.46875L45.7828 5.35367L45.7828 5.35367L46.2486 4.46875ZM55.6946 13.4531L56.5586 12.9496L56.5586 12.9496L55.6946 13.4531ZM55.5881 40.5128L54.7339 39.9928L54.7315 39.9967L55.5881 40.5128ZM45.8935 49.3196L45.4503 48.4231L45.4483 48.4242L45.8935 49.3196ZM12.6193 52.4091H11.6193V53.4091H12.6193V52.4091ZM12.6193 37.0682V36.0682H11.6193V37.0682H12.6193ZM33.3224 35.8608L33.7645 36.7578L33.7697 36.7552L33.3224 35.8608ZM37.1222 32.3452L36.2622 31.8346L36.2564 31.8447L37.1222 32.3452ZM37.1222 21.6562L36.2599 22.1627L36.2646 22.1708L36.2696 22.1788L37.1222 21.6562ZM33.3224 18.2472L32.8804 19.1442L32.8882 19.148L32.896 19.1517L33.3224 18.2472ZM20.4318 17.0398V16.0398H19.4318V17.0398H20.4318ZM20.4318 74V75H21.4318V74H20.4318ZM1.6875 74V1.27273H-0.3125V74H1.6875ZM0.6875 2.27273H32.0795V0.272725H0.6875V2.27273ZM32.0795 2.27273C37.3441 2.27273 41.9019 3.31107 45.7828 5.35367L46.7143 3.58383C42.4987 1.36506 37.6104 0.272725 32.0795 0.272725V2.27273ZM45.7828 5.35367C49.6695 7.39929 52.6783 10.2638 54.8306 13.9567L56.5586 12.9496C54.2128 8.92465 50.9242 5.79957 46.7143 3.58383L45.7828 5.35367ZM54.8306 13.9567C56.9775 17.6403 58.0682 21.971 58.0682 26.983H60.0682C60.0682 21.6729 58.9098 16.9838 56.5586 12.9496L54.8306 13.9567ZM58.0682 26.983C58.0682 32.039 56.9436 36.3626 54.7339 39.9928L56.4423 41.0327C58.8727 37.0399 60.0682 32.3436 60.0682 26.983H58.0682ZM54.7315 39.9967C52.5383 43.6371 49.4537 46.4442 45.4503 48.4231L46.3366 50.2161C50.6666 48.0757 54.0451 45.0116 56.4446 41.0288L54.7315 39.9967ZM45.4483 48.4242C41.4683 50.4028 36.7848 51.4091 31.3693 51.4091V53.4091C37.0334 53.4091 42.0326 52.3558 46.3386 50.215L45.4483 48.4242ZM31.3693 51.4091H12.6193V53.4091H31.3693V51.4091ZM13.6193 52.4091V37.0682H11.6193V52.4091H13.6193ZM12.6193 38.0682H27.392V36.0682H12.6193V38.0682ZM27.392 38.0682C29.8247 38.0682 31.961 37.6464 33.7644 36.7578L32.8804 34.9638C31.4168 35.685 29.5996 36.0682 27.392 36.0682V38.0682ZM33.7697 36.7552C35.5911 35.8445 37.0081 34.5404 37.9879 32.8457L36.2564 31.8447C35.4843 33.1802 34.3682 34.2199 32.8752 34.9664L33.7697 36.7552ZM37.982 32.8557C38.9879 31.1616 39.4716 29.1916 39.4716 26.983H37.4716C37.4716 28.8936 37.0557 30.4984 36.2623 31.8346L37.982 32.8557ZM39.4716 26.983C39.4716 24.7541 38.9893 22.7889 37.9748 21.1337L36.2696 22.1788C37.0543 23.4592 37.4716 25.0452 37.4716 26.983H39.4716ZM37.9844 21.1498C37.0004 19.4743 35.5767 18.2043 33.7489 17.3426L32.896 19.1517C34.3826 19.8525 35.492 20.8553 36.2599 22.1627L37.9844 21.1498ZM33.7644 17.3501C31.961 16.4615 29.8247 16.0398 27.392 16.0398V18.0398C29.5996 18.0398 31.4168 18.423 32.8804 19.1442L33.7644 17.3501ZM27.392 16.0398H20.4318V18.0398H27.392V16.0398ZM19.4318 17.0398V74H21.4318V17.0398H19.4318ZM20.4318 73H0.6875V75H20.4318V73ZM66.3125 74H65.3125V75H66.3125V74ZM66.3125 1.27273V0.272725H65.3125V1.27273H66.3125ZM111.874 4.22017L111.437 5.1198L111.874 4.22017ZM121.32 12.7074L122.174 12.1873L122.174 12.1873L121.32 12.7074ZM121.213 39.1634L120.374 38.6189L120.372 38.6229L121.213 39.1634ZM111.518 47.2599L111.118 46.3438L111.116 46.3446L111.518 47.2599ZM78.2443 49.9943H77.2443V50.9943H78.2443V49.9943ZM78.2443 34.6534V33.6534H77.2443V34.6534H78.2443ZM98.9474 33.8011L99.276 34.7457L99.2838 34.7429L98.9474 33.8011ZM102.747 30.9957L101.929 30.4202L101.922 30.4305L102.747 30.9957ZM102.747 20.9105L101.913 21.4618L101.919 21.4704L101.924 21.4789L102.747 20.9105ZM98.9474 17.9986L98.583 18.9298L98.5911 18.933L98.5993 18.936L98.9474 17.9986ZM86.0568 17.0398V16.0398H85.0568V17.0398H86.0568ZM86.0568 74V75H87.0568V74H86.0568ZM108.926 40.6193L109.804 40.141L109.52 39.6193H108.926V40.6193ZM127.108 74V75H128.791L127.986 73.5217L127.108 74ZM105.659 74L104.776 74.4696L105.058 75H105.659V74ZM87.9034 40.6193V39.6193H86.2388L87.0205 41.0889L87.9034 40.6193ZM67.3125 74V1.27273H65.3125V74H67.3125ZM66.3125 2.27273H97.7045V0.272725H66.3125V2.27273ZM97.7045 2.27273C102.981 2.27273 107.549 3.23278 111.437 5.1198L112.31 3.32054C108.101 1.27764 103.224 0.272725 97.7045 0.272725V2.27273ZM111.437 5.1198C115.32 7.00453 118.32 9.70515 120.466 13.2275L122.174 12.1873C119.821 8.32325 116.524 5.36573 112.31 3.32054L111.437 5.1198ZM120.466 13.2275C122.602 16.736 123.693 20.9753 123.693 25.9886H125.693C125.693 20.68 124.535 16.0651 122.174 12.1873L120.466 13.2275ZM123.693 25.9886C123.693 31.0469 122.568 35.239 120.374 38.6189L122.052 39.7078C124.498 35.9381 125.693 31.347 125.693 25.9886H123.693ZM120.372 38.6229C118.19 42.0199 115.117 44.5941 111.118 46.3438L111.919 48.1761C116.253 46.28 119.644 43.4564 122.054 39.7038L120.372 38.6229ZM111.116 46.3446C107.125 48.1007 102.426 48.9943 96.9943 48.9943V50.9943C102.642 50.9943 107.626 50.0651 111.921 48.1753L111.116 46.3446ZM96.9943 48.9943H78.2443V50.9943H96.9943V48.9943ZM79.2443 49.9943V34.6534H77.2443V49.9943H79.2443ZM78.2443 35.6534H93.017V33.6534H78.2443V35.6534ZM93.017 35.6534C95.4132 35.6534 97.5076 35.3607 99.276 34.7456L98.6189 32.8566C97.1202 33.3779 95.261 33.6534 93.017 33.6534V35.6534ZM99.2838 34.7429C101.111 34.0901 102.561 33.0363 103.572 31.561L101.922 30.4305C101.181 31.512 100.098 32.3284 98.6111 32.8594L99.2838 34.7429ZM103.565 31.5712C104.616 30.0782 105.097 28.1895 105.097 25.9886H103.097C103.097 27.907 102.678 29.3565 101.929 30.4202L103.565 31.5712ZM105.097 25.9886C105.097 23.7657 104.616 21.8568 103.57 20.3421L101.924 21.4789C102.677 22.5684 103.097 24.0449 103.097 25.9886H105.097ZM103.581 20.3593C102.575 18.8366 101.128 17.7418 99.2956 17.0612L98.5993 18.936C100.081 19.4864 101.167 20.3329 101.913 21.4618L103.581 20.3593ZM99.3118 17.0673C97.5314 16.3706 95.4238 16.0398 93.017 16.0398V18.0398C95.2505 18.0398 97.0964 18.3481 98.583 18.9298L99.3118 17.0673ZM93.017 16.0398H86.0568V18.0398H93.017V16.0398ZM85.0568 17.0398V74H87.0568V17.0398H85.0568ZM86.0568 73H66.3125V75H86.0568V73ZM108.048 41.0976L126.23 74.4783L127.986 73.5217L109.804 40.141L108.048 41.0976ZM127.108 73H105.659V75H127.108V73ZM106.542 73.5304L88.7863 40.1497L87.0205 41.0889L104.776 74.4696L106.542 73.5304ZM87.9034 41.6193H108.926V39.6193H87.9034V41.6193ZM198.841 58.1264L199.71 58.6206L199.711 58.619L198.841 58.1264ZM186.092 70.733L186.561 71.6162L186.564 71.6146L186.092 70.733ZM150.226 70.6974L149.749 71.5765L149.754 71.579L150.226 70.6974ZM137.513 58.0554L136.641 58.5451L136.643 58.5495L137.513 58.0554ZM137.513 17.1818L136.642 16.6893L136.642 16.6905L137.513 17.1818ZM150.226 4.57528L150.696 5.45764L150.698 5.45688L150.226 4.57528ZM186.092 4.57528L185.62 5.45688L185.623 5.4585L186.092 4.57528ZM198.841 17.1818L197.971 17.6744L197.972 17.676L198.841 17.1818ZM181.511 26.6278L180.576 26.9814L180.579 26.9903L181.511 26.6278ZM176.433 19.8097L175.859 20.6281L175.869 20.635L176.433 19.8097ZM159.92 19.8097L160.489 20.6322L160.491 20.6309L159.92 19.8097ZM154.842 26.6278L153.909 26.2679L153.908 26.2718L154.842 26.6278ZM154.842 48.6804L153.907 49.034L153.91 49.0428L154.842 48.6804ZM159.92 55.4986L159.346 56.3171L159.356 56.3239L159.92 55.4986ZM176.433 55.4986L177.002 56.3211L177.004 56.3198L176.433 55.4986ZM181.511 48.6804L180.578 48.3204L180.577 48.3244L181.511 48.6804ZM202.564 37.6364C202.564 45.6055 201.014 52.2556 197.971 57.6339L199.711 58.619C202.965 52.8703 204.564 45.8604 204.564 37.6364H202.564ZM197.972 57.6323C194.911 63.0166 190.796 67.0804 185.62 69.8514L186.564 71.6146C192.09 68.6563 196.473 64.3158 199.71 58.6206L197.972 57.6323ZM185.623 69.8497C180.43 72.6075 174.627 73.9943 168.195 73.9943V75.9943C174.925 75.9943 181.054 74.5403 186.561 71.6162L185.623 69.8497ZM168.195 73.9943C161.715 73.9943 155.89 72.5957 150.698 69.8158L149.754 71.579C155.263 74.5284 161.417 75.9943 168.195 75.9943V73.9943ZM150.703 69.8184C145.549 67.0239 141.443 62.9473 138.382 57.5613L136.643 58.5495C139.879 64.243 144.25 68.5945 149.749 71.5765L150.703 69.8184ZM138.385 57.5657C135.363 52.186 133.825 45.5581 133.825 37.6364H131.825C131.825 45.8131 133.413 52.7979 136.641 58.5451L138.385 57.5657ZM133.825 37.6364C133.825 29.6659 135.363 23.0274 138.384 17.6731L136.642 16.6905C133.412 22.4158 131.825 29.4137 131.825 37.6364H133.825ZM138.383 17.6744C141.444 12.266 145.547 8.20383 150.696 5.45763L149.755 3.69293C144.251 6.62855 139.879 10.9708 136.642 16.6893L138.383 17.6744ZM150.698 5.45688C155.89 2.67704 161.715 1.27841 168.195 1.27841V-0.721594C161.417 -0.721594 155.263 0.744353 149.754 3.69369L150.698 5.45688ZM168.195 1.27841C174.626 1.27841 180.427 2.67649 185.62 5.45688L186.564 3.69369C181.057 0.744911 174.926 -0.721594 168.195 -0.721594V1.27841ZM185.623 5.4585C190.796 8.20503 194.91 12.2671 197.971 17.6744L199.711 16.6893C196.474 10.9696 192.089 6.62735 186.561 3.69206L185.623 5.4585ZM197.972 17.676C201.014 23.0296 202.564 29.667 202.564 37.6364H204.564C204.564 29.4125 202.965 22.4136 199.71 16.6877L197.972 17.676ZM184.251 37.6364C184.251 33.1982 183.661 29.3974 182.443 26.2654L180.579 26.9903C181.681 29.8242 182.251 33.3624 182.251 37.6364H184.251ZM182.447 26.2743C181.251 23.1114 179.445 20.6584 176.998 18.9843L175.869 20.635C177.92 22.0386 179.499 24.131 180.576 26.9814L182.447 26.2743ZM177.008 18.9912C174.583 17.2884 171.625 16.4659 168.195 16.4659V18.4659C171.298 18.4659 173.833 19.2059 175.859 20.6281L177.008 18.9912ZM168.195 16.4659C164.764 16.4659 161.797 17.2885 159.35 18.9884L160.491 20.6309C162.542 19.2058 165.091 18.4659 168.195 18.4659V16.4659ZM159.352 18.9871C156.932 20.6605 155.128 23.1105 153.909 26.2679L155.775 26.9878C156.877 24.1319 158.458 22.0365 160.489 20.6322L159.352 18.9871ZM153.908 26.2718C152.716 29.4017 152.138 33.2001 152.138 37.6364H154.138C154.138 33.3605 154.696 29.8199 155.777 26.9838L153.908 26.2718ZM152.138 37.6364C152.138 42.0731 152.716 45.882 153.907 49.0339L155.778 48.3269C154.696 45.4655 154.138 41.9118 154.138 37.6364H152.138ZM153.91 49.0428C155.129 52.1765 156.932 54.6222 159.346 56.317L160.495 54.6802C158.458 53.25 156.876 51.1502 155.774 48.318L153.91 49.0428ZM159.356 56.3239C161.802 57.9976 164.767 58.8068 168.195 58.8068V56.8068C165.088 56.8068 162.537 56.0773 160.485 54.6733L159.356 56.3239ZM168.195 58.8068C171.622 58.8068 174.577 57.9977 177.002 56.3211L175.864 54.6761C173.838 56.0771 171.301 56.8068 168.195 56.8068V58.8068ZM177.004 56.3198C179.444 54.6243 181.25 52.1755 182.446 49.0364L180.577 48.3244C179.5 51.1512 177.92 53.2478 175.863 54.6773L177.004 56.3198ZM182.444 49.0404C183.661 45.8863 184.251 42.0749 184.251 37.6364H182.251C182.251 41.9099 181.682 45.4612 180.578 48.3204L182.444 49.0404ZM242.671 1.27273V0.272725H241.671V1.27273H242.671ZM262.131 1.27273H263.131V0.272725H262.131V1.27273ZM262.131 51.1307L263.131 51.1357V51.1307H262.131ZM258.544 63.6307L257.709 63.0811L257.708 63.0824L258.544 63.6307ZM248.814 72.0114L249.249 72.9119L249.251 72.9109L248.814 72.0114ZM221.79 72.5795L221.4 73.5004L221.405 73.5025L221.79 72.5795ZM212.557 64.9091L211.721 65.4573L211.723 65.4599L212.557 64.9091ZM209.148 51.2727V50.2727H208.152L208.148 51.2685L209.148 51.2727ZM228.892 51.2727L229.892 51.2338L229.854 50.2727H228.892V51.2727ZM229.816 55.8892L228.898 56.2873L228.901 56.2945L228.905 56.3017L229.816 55.8892ZM232.159 58.7301L231.619 59.5713L231.63 59.5787L231.642 59.5858L232.159 58.7301ZM239.546 58.6946L239.014 57.8477L239.005 57.8534L239.546 58.6946ZM241.854 55.8537L242.778 56.2371L242.78 56.231L241.854 55.8537ZM242.671 51.1307L243.671 51.1433V51.1307H242.671ZM242.671 2.27273H262.131V0.272725H242.671V2.27273ZM261.131 1.27273V51.1307H263.131V1.27273H261.131ZM261.131 51.1257C261.108 55.6869 259.959 59.6603 257.709 63.0811L259.38 64.1803C261.864 60.4041 263.106 56.0442 263.131 51.1357L261.131 51.1257ZM257.708 63.0824C255.471 66.4945 252.371 69.1721 248.377 71.1119L249.251 72.9109C253.544 70.826 256.93 67.9164 259.381 64.179L257.708 63.0824ZM248.38 71.1108C244.418 73.0235 239.824 73.9943 234.574 73.9943V75.9943C240.073 75.9943 244.972 74.9765 249.249 72.9119L248.38 71.1108ZM234.574 73.9943C230.027 73.9943 225.899 73.21 222.175 71.6566L221.405 73.5025C225.399 75.1688 229.793 75.9943 234.574 75.9943V73.9943ZM222.18 71.6587C218.502 70.1016 215.579 67.673 213.392 64.3583L211.723 65.4599C214.128 69.1054 217.361 71.7905 221.4 73.5004L222.18 71.6587ZM213.394 64.3609C211.235 61.0677 210.125 56.732 210.148 51.277L208.148 51.2685C208.124 56.9877 209.286 61.7429 211.721 65.4573L213.394 64.3609ZM209.148 52.2727H228.892V50.2727H209.148V52.2727ZM227.893 51.3117C227.967 53.2194 228.291 54.888 228.898 56.2873L230.733 55.4911C230.251 54.3809 229.959 52.9719 229.892 51.2338L227.893 51.3117ZM228.905 56.3017C229.539 57.7024 230.437 58.8116 231.619 59.5713L232.7 57.8889C231.893 57.3702 231.229 56.5855 230.727 55.4767L228.905 56.3017ZM231.642 59.5858C232.846 60.3141 234.265 60.6534 235.853 60.6534V58.6534C234.552 58.6534 233.508 58.3772 232.677 57.8744L231.642 59.5858ZM235.853 60.6534C237.466 60.6534 238.896 60.3012 240.087 59.5358L239.005 57.8534C238.207 58.3664 237.175 58.6534 235.853 58.6534V60.6534ZM240.078 59.5415C241.293 58.7781 242.188 57.6572 242.778 56.2371L240.93 55.4703C240.478 56.5596 239.834 57.3327 239.014 57.8477L240.078 59.5415ZM242.78 56.231C243.362 54.8036 243.646 53.0971 243.671 51.1433L241.671 51.118C241.648 52.9048 241.388 54.347 240.928 55.4764L242.78 56.231ZM243.671 51.1307V1.27273H241.671V51.1307H243.671ZM271.488 74H270.488V75H271.488V74ZM271.488 1.27273V0.272725H270.488V1.27273H271.488ZM323.903 1.27273H324.903V0.272725H323.903V1.27273ZM323.903 17.1818V18.1818H324.903V17.1818H323.903ZM291.233 17.1818V16.1818H290.233V17.1818H291.233ZM291.233 29.6818H290.233V30.6818H291.233V29.6818ZM321.204 29.6818H322.204V28.6818H321.204V29.6818ZM321.204 45.5909V46.5909H322.204V45.5909H321.204ZM291.233 45.5909V44.5909H290.233V45.5909H291.233ZM291.233 58.0909H290.233V59.0909H291.233V58.0909ZM323.761 58.0909H324.761V57.0909H323.761V58.0909ZM323.761 74V75H324.761V74H323.761ZM272.488 74V1.27273H270.488V74H272.488ZM271.488 2.27273H323.903V0.272725H271.488V2.27273ZM322.903 1.27273V17.1818H324.903V1.27273H322.903ZM323.903 16.1818H291.233V18.1818H323.903V16.1818ZM290.233 17.1818V29.6818H292.233V17.1818H290.233ZM291.233 30.6818H321.204V28.6818H291.233V30.6818ZM320.204 29.6818V45.5909H322.204V29.6818H320.204ZM321.204 44.5909H291.233V46.5909H321.204V44.5909ZM290.233 45.5909V58.0909H292.233V45.5909H290.233ZM291.233 59.0909H323.761V57.0909H291.233V59.0909ZM322.761 58.0909V74H324.761V58.0909H322.761ZM323.761 73H271.488V75H323.761V73ZM401.593 28.5455V29.5455H402.68L402.59 28.462L401.593 28.5455ZM381.565 28.5455L380.568 28.6309L380.647 29.5455H381.565V28.5455ZM380.428 24.0355L379.512 24.4372L379.515 24.4439L379.518 24.4505L380.428 24.0355ZM377.942 20.5554L377.252 21.2787L377.26 21.2868L377.269 21.2946L377.942 20.5554ZM374.143 18.2827L373.8 19.2221L373.813 19.2268L374.143 18.2827ZM360.648 19.8807L360.074 19.0618L360.07 19.0647L360.648 19.8807ZM355.464 26.8054L354.533 26.4391L354.531 26.4454L355.464 26.8054ZM355.499 48.8224L354.569 49.1888L354.572 49.1976L355.499 48.8224ZM360.719 55.5696L360.165 56.4017L360.171 56.4056L360.719 55.5696ZM373.823 57.1321L374.121 58.0869L374.128 58.0846L374.135 58.0823L373.823 57.1321ZM377.587 55.108L378.222 55.8804L378.222 55.8804L377.587 55.108ZM380.18 51.9474L379.302 51.4674L379.299 51.4733L380.18 51.9474ZM381.565 47.7216L381.572 46.7216L380.706 46.7155L380.576 47.5718L381.565 47.7216ZM401.593 47.8636L402.59 47.9403L402.672 46.8713L401.6 46.8637L401.593 47.8636ZM399.001 57.2741L399.906 57.6996L399.907 57.697L399.001 57.2741ZM392.644 66.081L393.345 66.7942L393.345 66.7942L392.644 66.081ZM382.523 72.544L382.147 71.6174L382.523 72.544ZM350.528 70.6974L350.051 71.5764L350.052 71.5773L350.528 70.6974ZM337.992 58.0554L337.116 58.5366L337.117 58.5395L337.992 58.0554ZM338.099 17.1818L338.97 17.6731L338.971 17.6716L338.099 17.1818ZM350.741 4.57528L351.213 5.45677L351.216 5.45512L350.741 4.57528ZM381.174 2.16051L381.483 1.20952L381.483 1.20952L381.174 2.16051ZM391.33 7.66477L390.692 8.43454L390.696 8.43761L391.33 7.66477ZM398.362 16.5071L397.47 16.9591L397.47 16.9591L398.362 16.5071ZM401.593 27.5455H381.565V29.5455H401.593V27.5455ZM382.561 28.4601C382.41 26.7026 382.007 25.0859 381.338 23.6205L379.518 24.4505C380.081 25.684 380.435 27.0739 380.568 28.6309L382.561 28.4601ZM381.344 23.6338C380.697 22.1591 379.787 20.8833 378.616 19.8162L377.269 21.2946C378.228 22.1688 378.976 23.213 379.512 24.4372L381.344 23.6338ZM378.633 19.832C377.478 18.73 376.085 17.9018 374.472 17.3386L373.813 19.2268C375.183 19.7052 376.323 20.3921 377.252 21.2787L378.633 19.832ZM374.486 17.3433C372.865 16.7518 371.054 16.4659 369.065 16.4659V18.4659C370.864 18.4659 372.437 18.7245 373.8 19.222L374.486 17.3433ZM369.065 16.4659C365.583 16.4659 362.568 17.3139 360.074 19.0618L361.222 20.6995C363.322 19.2278 365.917 18.4659 369.065 18.4659V16.4659ZM360.07 19.0647C357.615 20.804 355.777 23.2811 354.533 26.4391L356.394 27.1717C357.518 24.3164 359.137 22.177 361.226 20.6967L360.07 19.0647ZM354.531 26.4454C353.315 29.5962 352.724 33.3352 352.724 37.6364H354.724C354.724 33.5095 355.292 30.0278 356.397 27.1654L354.531 26.4454ZM352.724 37.6364C352.724 42.1684 353.325 46.0305 354.569 49.1888L356.43 48.4561C355.306 45.6012 354.724 42.0058 354.724 37.6364H352.724ZM354.572 49.1976C355.841 52.3329 357.697 54.7564 360.165 56.4017L361.274 54.7376C359.197 53.3526 357.572 51.2779 356.426 48.4473L354.572 49.1976ZM360.171 56.4056C362.633 58.0218 365.567 58.8068 368.923 58.8068V56.8068C365.887 56.8068 363.351 56.1004 361.268 54.7336L360.171 56.4056ZM368.923 58.8068C370.826 58.8068 372.563 58.5721 374.121 58.0869L373.526 56.1773C372.195 56.5918 370.665 56.8068 368.923 56.8068V58.8068ZM374.135 58.0823C375.685 57.5741 377.052 56.8428 378.222 55.8804L376.952 54.3355C375.992 55.125 374.85 55.7431 373.512 56.1819L374.135 58.0823ZM378.222 55.8804C379.39 54.9207 380.337 53.7654 381.06 52.4215L379.299 51.4733C378.697 52.5916 377.916 53.5433 376.952 54.3355L378.222 55.8804ZM381.057 52.4275C381.805 51.0598 382.301 49.5375 382.553 47.8714L380.576 47.5718C380.355 49.0306 379.927 50.3256 379.302 51.4674L381.057 52.4275ZM381.558 48.7216L401.586 48.8636L401.6 46.8637L381.572 46.7216L381.558 48.7216ZM400.596 47.7869C400.37 50.7289 399.542 53.7489 398.095 56.8513L399.907 57.697C401.442 54.4074 402.343 51.1537 402.59 47.9403L400.596 47.7869ZM398.096 56.8487C396.659 59.9037 394.613 62.7438 391.943 65.3677L393.345 66.7942C396.168 64.0204 398.359 60.9893 399.906 57.6996L398.096 56.8487ZM391.943 65.3677C389.326 67.9394 386.067 70.0264 382.147 71.6174L382.9 73.4706C387.029 71.7947 390.517 69.5729 393.345 66.7942L391.943 65.3677ZM382.147 71.6174C378.266 73.1929 373.723 73.9943 368.496 73.9943V75.9943C373.924 75.9943 378.732 75.1623 382.9 73.4706L382.147 71.6174ZM368.496 73.9943C361.968 73.9943 356.145 72.5951 351.003 69.8176L350.052 71.5773C355.517 74.529 361.673 75.9943 368.496 75.9943V73.9943ZM351.005 69.8185C345.903 67.0503 341.858 62.9781 338.867 57.5713L337.117 58.5395C340.281 64.2596 344.594 68.6154 350.051 71.5764L351.005 69.8185ZM338.869 57.5742C335.915 52.1926 334.411 45.5616 334.411 37.6364H332.411C332.411 45.8096 333.962 52.7913 337.116 58.5366L338.869 57.5742ZM334.411 37.6364C334.411 29.6659 335.949 23.0274 338.97 17.6731L337.228 16.6905C333.998 22.4158 332.411 29.4137 332.411 37.6364H334.411ZM338.971 17.6716C342.008 12.2635 346.088 8.20224 351.213 5.45676L350.269 3.6938C344.787 6.63014 340.439 10.9732 337.227 16.6921L338.971 17.6716ZM351.216 5.45512C356.361 2.67594 362.114 1.27841 368.496 1.27841V-0.721594C361.811 -0.721594 355.727 0.745459 350.265 3.69544L351.216 5.45512ZM368.496 1.27841C372.998 1.27841 377.118 1.8932 380.865 3.1115L381.483 1.20952C377.512 -0.0816533 373.181 -0.721594 368.496 -0.721594V1.27841ZM380.865 3.1115C384.612 4.33002 387.884 6.10613 390.692 8.43453L391.969 6.89501C388.953 4.39387 385.453 2.50046 381.483 1.20952L380.865 3.1115ZM390.696 8.43761C393.496 10.737 395.754 13.5736 397.47 16.9591L399.254 16.0551C397.418 12.433 394.988 9.37472 391.965 6.89193L390.696 8.43761ZM397.47 16.9591C399.178 20.3315 400.227 24.2159 400.597 28.6289L402.59 28.462C402.202 23.8315 401.096 19.6902 399.254 16.0551L397.47 16.9591ZM408.562 17.1818H407.562V18.1818H408.562V17.1818ZM408.562 1.27273V0.272725H407.562V1.27273H408.562ZM471.772 1.27273H472.772V0.272725H471.772V1.27273ZM471.772 17.1818V18.1818H472.772V17.1818H471.772ZM449.897 17.1818V16.1818H448.897V17.1818H449.897ZM449.897 74V75H450.897V74H449.897ZM430.437 74H429.437V75H430.437V74ZM430.437 17.1818H431.437V16.1818H430.437V17.1818ZM409.562 17.1818V1.27273H407.562V17.1818H409.562ZM408.562 2.27273H471.772V0.272725H408.562V2.27273ZM470.772 1.27273V17.1818H472.772V1.27273H470.772ZM471.772 16.1818H449.897V18.1818H471.772V16.1818ZM448.897 17.1818V74H450.897V17.1818H448.897ZM449.897 73H430.437V75H449.897V73ZM431.437 74V17.1818H429.437V74H431.437ZM430.437 16.1818H408.562V18.1818H430.437V16.1818ZM518.408 24L517.411 24.0797L517.484 25H518.408V24ZM515.744 18.4602L515.097 19.2228L515.103 19.2275L515.744 18.4602ZM503.599 17.2173L503.947 18.1551L503.956 18.1515L503.599 17.2173ZM500.759 19.1705L499.956 18.5741L499.956 18.5741L500.759 19.1705ZM499.8 22.0114L500.798 22.0653L500.799 22.0495L500.799 22.0336L499.8 22.0114ZM500.261 24.3906L499.367 24.8378L499.376 24.856L499.386 24.8737L500.261 24.3906ZM502.037 26.2727L501.46 27.0897L501.468 27.0954L501.477 27.101L502.037 26.2727ZM509.601 28.9716L509.81 27.9938L509.802 27.9921L509.601 28.9716ZM515.567 30.25L515.357 31.2278L515.36 31.2283L515.567 30.25ZM525.901 33.6236L525.462 34.5224L525.901 33.6236ZM532.932 38.5597L532.211 39.2531L532.216 39.2576L532.932 38.5597ZM536.945 44.8807L536.005 45.2224L536.008 45.2308L536.945 44.8807ZM538.294 52.5511L539.294 52.5561L539.294 52.5426L538.294 52.5511ZM534.707 64.696L535.521 65.2773L535.521 65.2773L534.707 64.696ZM524.551 72.2599L524.186 71.3291L524.184 71.3297L524.551 72.2599ZM492.2 72.0469L491.83 72.9757L491.831 72.9763L492.2 72.0469ZM481.263 63.4176L480.428 63.9688L480.432 63.9746L481.263 63.4176ZM477.357 48.4318V47.4318H476.353L476.357 48.4357L477.357 48.4318ZM496.107 48.4318L497.105 48.3787L497.055 47.4318H496.107V48.4318ZM497.776 54.0426L496.94 54.5913L496.94 54.5913L497.776 54.0426ZM501.966 57.4872L501.568 58.4045L501.572 58.4064L501.966 57.4872ZM513.756 57.8778L514.1 58.8167L514.1 58.8167L513.756 57.8778ZM516.987 55.7116L517.77 56.3339L517.77 56.3339L516.987 55.7116ZM518.124 52.5511L519.123 52.5711L519.124 52.5505L519.123 52.5299L518.124 52.5511ZM517.023 49.6392L516.244 50.2665L516.254 50.2784L516.263 50.29L517.023 49.6392ZM513.614 47.3665L513.216 48.2843L513.228 48.2891L513.614 47.3665ZM507.186 45.4489L507.4 44.4721L507.397 44.4713L507.186 45.4489ZM499.942 43.8864L499.73 44.8636L499.731 44.8639L499.942 43.8864ZM484.707 36.8906L484.042 37.6373L484.047 37.6417L484.707 36.8906ZM479.203 23.4318L480.203 23.436L480.203 23.4267L479.203 23.4318ZM482.896 11.3224L482.085 10.7376L482.084 10.7386L482.896 11.3224ZM493.301 3.19034L492.901 2.27373L492.9 2.27452L493.301 3.19034ZM523.841 3.22585L523.424 4.13484L523.424 4.13484L523.841 3.22585ZM533.749 11.5355L532.91 12.0799L532.914 12.0864L533.749 11.5355ZM537.3 24V25H538.305L538.3 23.995L537.3 24ZM519.404 23.9203C519.197 21.3286 518.209 19.2169 516.386 17.6929L515.103 19.2275C516.452 20.3551 517.239 21.9366 517.411 24.0797L519.404 23.9203ZM516.391 17.6977C514.571 16.1531 511.914 15.4716 508.607 15.4716V17.4716C511.692 17.4716 513.793 18.1158 515.097 19.2227L516.391 17.6977ZM508.607 15.4716C506.5 15.4716 504.698 15.7273 503.243 16.2831L503.956 18.1515C505.105 17.713 506.641 17.4716 508.607 17.4716V15.4716ZM503.252 16.2796C501.849 16.7992 500.718 17.5474 499.956 18.5741L501.561 19.7668C502.03 19.1363 502.793 18.5824 503.947 18.1551L503.252 16.2796ZM499.956 18.5741C499.212 19.5747 498.828 20.7238 498.8 21.9891L500.799 22.0336C500.819 21.1682 501.073 20.4234 501.561 19.7668L499.956 18.5741ZM498.801 21.9574C498.745 22.988 498.926 23.9566 499.367 24.8378L501.156 23.9434C500.886 23.4042 500.759 22.7866 500.798 22.0653L498.801 21.9574ZM499.386 24.8737C499.854 25.7222 500.563 26.456 501.46 27.0897L502.614 25.4558C501.901 24.953 501.426 24.4321 501.137 23.9075L499.386 24.8737ZM501.477 27.101C502.371 27.7061 503.482 28.2372 504.789 28.7055L505.464 26.8229C504.261 26.3916 503.313 25.9284 502.597 25.4444L501.477 27.101ZM504.789 28.7055C506.1 29.1754 507.639 29.5894 509.4 29.9511L509.802 27.9921C508.106 27.6436 506.663 27.2526 505.464 26.8229L504.789 28.7055ZM509.391 29.9494L515.357 31.2278L515.776 29.2722L509.81 27.9938L509.391 29.9494ZM515.36 31.2283C519.326 32.0683 522.689 33.1701 525.462 34.5224L526.339 32.7247C523.383 31.2835 519.857 30.1363 515.774 29.2717L515.36 31.2283ZM525.462 34.5224C528.243 35.8784 530.485 37.4595 532.211 39.2531L533.652 37.8662C531.733 35.872 529.287 34.1623 526.339 32.7247L525.462 34.5224ZM532.216 39.2576C533.944 41.0313 535.203 43.0182 536.005 45.2224L537.884 44.5389C536.981 42.0556 535.565 39.8286 533.648 37.8617L532.216 39.2576ZM536.008 45.2308C536.839 47.4542 537.271 49.894 537.294 52.5597L539.294 52.5426C539.269 49.6685 538.802 46.9947 537.881 44.5306L536.008 45.2308ZM537.294 52.5462C537.271 57.1587 536.121 60.9964 533.894 64.1148L535.521 65.2773C538.029 61.7668 539.27 57.508 539.294 52.5561L537.294 52.5462ZM533.894 64.1148C531.656 67.2476 528.439 69.6599 524.186 71.3291L524.916 73.1908C529.47 71.4036 533.024 68.7732 535.521 65.2773L533.894 64.1148ZM524.184 71.3297C519.951 73.0001 514.815 73.8523 508.749 73.8523V75.8523C514.993 75.8523 520.392 74.9763 524.918 73.1901L524.184 71.3297ZM508.749 73.8523C502.524 73.8523 497.138 72.9311 492.569 71.1174L491.831 72.9763C496.685 74.9031 502.331 75.8523 508.749 75.8523V73.8523ZM492.571 71.1181C488.055 69.3163 484.576 66.5622 482.093 62.8606L480.432 63.9746C483.158 68.0381 486.971 71.0369 491.83 72.9757L492.571 71.1181ZM482.097 62.8664C479.652 59.1648 478.38 54.3751 478.357 48.4279L476.357 48.4357C476.381 54.6571 477.713 59.858 480.428 63.9688L482.097 62.8664ZM477.357 49.4318H496.107V47.4318H477.357V49.4318ZM495.108 48.4849C495.234 50.8466 495.828 52.8978 496.94 54.5913L498.612 53.494C497.734 52.1572 497.216 50.4678 497.105 48.3787L495.108 48.4849ZM496.94 54.5913C498.05 56.2828 499.605 57.5523 501.568 58.4045L502.364 56.57C500.728 55.8596 499.49 54.8327 498.612 53.494L496.94 54.5913ZM501.572 58.4064C503.548 59.2531 505.854 59.6591 508.464 59.6591V57.6591C506.056 57.6591 504.03 57.2838 502.36 56.5681L501.572 58.4064ZM508.464 59.6591C510.646 59.6591 512.535 59.3904 514.1 58.8167L513.411 56.939C512.135 57.4069 510.497 57.6591 508.464 57.6591V59.6591ZM514.1 58.8167C515.645 58.2502 516.894 57.4364 517.77 56.3339L516.204 55.0894C515.613 55.8335 514.707 56.4638 513.411 56.939L514.1 58.8167ZM517.77 56.3339C518.641 55.2383 519.095 53.973 519.123 52.5711L517.124 52.5311C517.104 53.4967 516.801 54.3384 516.204 55.0894L517.77 56.3339ZM519.123 52.5299C519.095 51.1908 518.646 49.9965 517.782 48.9884L516.263 50.29C516.82 50.9391 517.105 51.6861 517.124 52.5724L519.123 52.5299ZM517.801 49.0119C516.967 47.9764 515.66 47.1377 513.999 46.4438L513.228 48.2891C514.74 48.921 515.705 49.5974 516.244 50.2665L517.801 49.0119ZM514.011 46.4488C512.342 45.7262 510.129 45.0706 507.4 44.4721L506.972 46.4257C509.64 47.0109 511.713 47.6336 513.216 48.2842L514.011 46.4488ZM507.397 44.4713L500.153 42.9088L499.731 44.8639L506.975 46.4264L507.397 44.4713ZM500.154 42.9091C493.827 41.5368 488.921 39.2632 485.368 36.1395L484.047 37.6417C487.927 41.0522 493.177 43.4423 499.73 44.8636L500.154 42.9091ZM485.373 36.144C481.926 33.0733 480.18 28.8783 480.203 23.436L478.203 23.4277C478.178 29.349 480.102 34.1265 484.042 37.6372L485.373 36.144ZM480.203 23.4267C480.18 19.0027 481.356 15.1766 483.708 11.9063L482.084 10.7386C479.465 14.3812 478.178 18.628 478.203 23.4369L480.203 23.4267ZM483.707 11.9073C486.1 8.5898 489.418 5.98499 493.703 4.10616L492.9 2.27452C488.33 4.27826 484.712 7.09485 482.085 10.7376L483.707 11.9073ZM493.701 4.10694C498.004 2.22986 502.966 1.27841 508.607 1.27841V-0.721594C502.741 -0.721594 497.499 0.268242 492.901 2.27373L493.701 4.10694ZM508.607 1.27841C514.368 1.27841 519.298 2.24268 523.424 4.13484L524.258 2.31686C519.814 0.2791 514.587 -0.721594 508.607 -0.721594V1.27841ZM523.424 4.13484C527.556 6.02943 530.704 8.6808 532.91 12.0799L534.587 10.9911C532.153 7.2406 528.696 4.3522 524.258 2.31686L523.424 4.13484ZM532.914 12.0864C535.138 15.4567 536.277 19.4168 536.3 24.005L538.3 23.995C538.275 19.0661 537.046 14.7166 534.583 10.9847L532.914 12.0864ZM537.3 23H518.408V25H537.3V23Z" fill="#716969" mask="url(#path-1-outside-1_1_4)"/>
</svg>
