<svg width="344" height="75" viewBox="0 0 344 75" fill="none" xmlns="http://www.w3.org/2000/svg">
<mask id="path-1-outside-1_1_4" maskUnits="userSpaceOnUse" x="-1" y="-1" width="346" height="77" fill="black">
<rect fill="white" x="-1" y="-1" width="346" height="77"/>
<path d="M41.892 24C41.7027 21.6326 40.8149 19.786 39.2287 18.4602C37.6662 17.1345 35.2869 16.4716 32.0909 16.4716C30.0549 16.4716 28.3859 16.7202 27.0838 17.2173C25.8054 17.6908 24.8584 18.3419 24.2429 19.1705C23.6274 19.9991 23.3078 20.946 23.2841 22.0114C23.2367 22.8873 23.3906 23.6804 23.7457 24.3906C24.1245 25.0772 24.7164 25.7045 25.5213 26.2727C26.3262 26.8172 27.3561 27.3144 28.6108 27.7642C29.8655 28.214 31.357 28.6165 33.0852 28.9716L39.0511 30.25C43.0758 31.1023 46.5204 32.2268 49.3849 33.6236C52.2495 35.0204 54.5933 36.6657 56.4162 38.5597C58.2391 40.4299 59.5767 42.5369 60.429 44.8807C61.3049 47.2244 61.7547 49.7812 61.7784 52.5511C61.7547 57.3333 60.5592 61.3816 58.1918 64.696C55.8243 68.0104 52.4389 70.5317 48.0355 72.2599C43.6558 73.9882 38.3883 74.8523 32.233 74.8523C25.9119 74.8523 20.3958 73.9171 15.6847 72.0469C10.9972 70.1766 7.35133 67.3002 4.74716 63.4176C2.16667 59.5114 0.864583 54.5161 0.840909 48.4318H19.5909C19.7093 50.6572 20.2656 52.5275 21.2599 54.0426C22.2543 55.5578 23.651 56.706 25.4503 57.4872C27.2732 58.2685 29.4394 58.6591 31.9489 58.6591C34.0559 58.6591 35.8196 58.3987 37.2401 57.8778C38.6605 57.357 39.7377 56.6349 40.4716 55.7116C41.2055 54.7884 41.5843 53.7348 41.608 52.5511C41.5843 51.4384 41.2173 50.4678 40.5071 49.6392C39.8206 48.7869 38.6842 48.0294 37.098 47.3665C35.5118 46.6799 33.3693 46.0407 30.6705 45.4489L23.4261 43.8864C16.9867 42.4896 11.9086 40.1577 8.19176 36.8906C4.49858 33.5999 2.66383 29.1136 2.6875 23.4318C2.66383 18.8153 3.89489 14.7789 6.38068 11.3224C8.89015 7.84233 12.3584 5.13163 16.7855 3.19034C21.2363 1.24905 26.3381 0.278406 32.0909 0.278406C37.9621 0.278406 43.0402 1.26089 47.3253 3.22585C51.6103 5.19081 54.9129 7.9607 57.233 11.5355C59.5767 15.0866 60.7604 19.2415 60.7841 24H41.892ZM69.2891 74V1.27273H89.0334V30.6761H90.0277L111.903 1.27273H134.914L110.34 33.6591L135.482 74H111.903L95.5675 46.7273L89.0334 55.25V74H69.2891ZM160.518 1.27273V74H140.773V1.27273H160.518ZM169.875 74V1.27273H189.619V58.0909H219.023V74H169.875ZM227.004 74V1.27273H246.748V58.0909H276.152V74H227.004ZM323.337 24C323.148 21.6326 322.26 19.786 320.674 18.4602C319.112 17.1345 316.732 16.4716 313.536 16.4716C311.5 16.4716 309.831 16.7202 308.529 17.2173C307.251 17.6908 306.304 18.3419 305.688 19.1705C305.073 19.9991 304.753 20.946 304.729 22.0114C304.682 22.8873 304.836 23.6804 305.191 24.3906C305.57 25.0772 306.162 25.7045 306.967 26.2727C307.772 26.8172 308.801 27.3144 310.056 27.7642C311.311 28.214 312.802 28.6165 314.531 28.9716L320.496 30.25C324.521 31.1023 327.966 32.2268 330.83 33.6236C333.695 35.0204 336.039 36.6657 337.862 38.5597C339.684 40.4299 341.022 42.5369 341.874 44.8807C342.75 47.2244 343.2 49.7812 343.224 52.5511C343.2 57.3333 342.004 61.3816 339.637 64.696C337.27 68.0104 333.884 70.5317 329.481 72.2599C325.101 73.9882 319.834 74.8523 313.678 74.8523C307.357 74.8523 301.841 73.9171 297.13 72.0469C292.442 70.1766 288.797 67.3002 286.192 63.4176C283.612 59.5114 282.31 54.5161 282.286 48.4318H301.036C301.155 50.6572 301.711 52.5275 302.705 54.0426C303.7 55.5578 305.096 56.706 306.896 57.4872C308.719 58.2685 310.885 58.6591 313.394 58.6591C315.501 58.6591 317.265 58.3987 318.685 57.8778C320.106 57.357 321.183 56.6349 321.917 55.7116C322.651 54.7884 323.03 53.7348 323.053 52.5511C323.03 51.4384 322.663 50.4678 321.952 49.6392C321.266 48.7869 320.129 48.0294 318.543 47.3665C316.957 46.6799 314.815 46.0407 312.116 45.4489L304.871 43.8864C298.432 42.4896 293.354 40.1577 289.637 36.8906C285.944 33.5999 284.109 29.1136 284.133 23.4318C284.109 18.8153 285.34 14.7789 287.826 11.3224C290.335 7.84233 293.804 5.13163 298.231 3.19034C302.682 1.24905 307.783 0.278406 313.536 0.278406C319.407 0.278406 324.486 1.26089 328.771 3.22585C333.056 5.19081 336.358 7.9607 338.678 11.5355C341.022 15.0866 342.206 19.2415 342.229 24H323.337Z"/>
</mask>
<path d="M41.892 24L40.8952 24.0797L40.9689 25H41.892V24ZM39.2287 18.4602L38.5817 19.2228L38.5874 19.2275L39.2287 18.4602ZM27.0838 17.2173L27.4311 18.1551L27.4405 18.1515L27.0838 17.2173ZM24.2429 19.1705L23.4402 18.5741L23.4402 18.5741L24.2429 19.1705ZM23.2841 22.0114L24.2826 22.0653L24.2835 22.0495L24.2838 22.0336L23.2841 22.0114ZM23.7457 24.3906L22.8513 24.8378L22.8604 24.856L22.8702 24.8737L23.7457 24.3906ZM25.5213 26.2727L24.9446 27.0897L24.9528 27.0954L24.961 27.101L25.5213 26.2727ZM33.0852 28.9716L33.2948 27.9938L33.2865 27.9921L33.0852 28.9716ZM39.0511 30.25L38.8416 31.2278L38.844 31.2283L39.0511 30.25ZM49.3849 33.6236L48.9467 34.5224L49.3849 33.6236ZM56.4162 38.5597L55.6957 39.2531L55.7001 39.2576L56.4162 38.5597ZM60.429 44.8807L59.4892 45.2224L59.4923 45.2308L60.429 44.8807ZM61.7784 52.5511L62.7785 52.5561L62.7784 52.5426L61.7784 52.5511ZM58.1918 64.696L59.0055 65.2773L59.0055 65.2773L58.1918 64.696ZM48.0355 72.2599L47.6702 71.3291L47.6685 71.3297L48.0355 72.2599ZM15.6847 72.0469L15.3141 72.9757L15.3157 72.9763L15.6847 72.0469ZM4.74716 63.4176L3.91276 63.9688L3.91667 63.9746L4.74716 63.4176ZM0.840909 48.4318V47.4318H-0.162989L-0.159083 48.4357L0.840909 48.4318ZM19.5909 48.4318L20.5895 48.3787L20.5391 47.4318H19.5909V48.4318ZM21.2599 54.0426L20.4239 54.5913L20.4239 54.5913L21.2599 54.0426ZM25.4503 57.4872L25.052 58.4045L25.0564 58.4064L25.4503 57.4872ZM37.2401 57.8778L37.5843 58.8167L37.5843 58.8167L37.2401 57.8778ZM40.4716 55.7116L41.2544 56.3339L41.2544 56.3339L40.4716 55.7116ZM41.608 52.5511L42.6078 52.5711L42.6082 52.5505L42.6077 52.5299L41.608 52.5511ZM40.5071 49.6392L39.7283 50.2665L39.7379 50.2784L39.7478 50.29L40.5071 49.6392ZM37.098 47.3665L36.7008 48.2843L36.7124 48.2891L37.098 47.3665ZM30.6705 45.4489L30.8847 44.4721L30.8813 44.4713L30.6705 45.4489ZM23.4261 43.8864L23.2142 44.8636L23.2153 44.8639L23.4261 43.8864ZM8.19176 36.8906L7.52649 37.6373L7.53157 37.6417L8.19176 36.8906ZM2.6875 23.4318L3.68753 23.436L3.68749 23.4267L2.6875 23.4318ZM6.38068 11.3224L5.56957 10.7376L5.56883 10.7386L6.38068 11.3224ZM16.7855 3.19034L16.3857 2.27373L16.3839 2.27452L16.7855 3.19034ZM47.3253 3.22585L46.9085 4.13484L46.9085 4.13484L47.3253 3.22585ZM57.233 11.5355L56.3941 12.0799L56.3983 12.0864L57.233 11.5355ZM60.7841 24V25H61.7891L61.7841 23.995L60.7841 24ZM42.8889 23.9203C42.6815 21.3286 41.6933 19.2169 39.87 17.6929L38.5874 19.2275C39.9364 20.3551 40.7238 21.9366 40.8952 24.0797L42.8889 23.9203ZM39.8757 17.6977C38.0553 16.1531 35.3979 15.4716 32.0909 15.4716V17.4716C35.176 17.4716 37.2771 18.1158 38.5817 19.2227L39.8757 17.6977ZM32.0909 15.4716C29.9842 15.4716 28.1827 15.7273 26.7271 16.2831L27.4405 18.1515C28.5891 17.713 30.1257 17.4716 32.0909 17.4716V15.4716ZM26.7365 16.2796C25.3336 16.7992 24.2029 17.5474 23.4402 18.5741L25.0456 19.7668C25.514 19.1363 26.2772 18.5824 27.4311 18.1551L26.7365 16.2796ZM23.4402 18.5741C22.6969 19.5747 22.3125 20.7238 22.2843 21.9891L24.2838 22.0336C24.3031 21.1682 24.5579 20.4234 25.0456 19.7668L23.4402 18.5741ZM22.2855 21.9574C22.2298 22.988 22.4107 23.9566 22.8513 24.8378L24.6402 23.9434C24.3706 23.4042 24.2436 22.7866 24.2826 22.0653L22.2855 21.9574ZM22.8702 24.8737C23.3383 25.7222 24.047 26.456 24.9446 27.0897L26.098 25.4558C25.3858 24.953 24.9107 24.4321 24.6213 23.9075L22.8702 24.8737ZM24.961 27.101C25.8554 27.7061 26.9668 28.2372 28.2733 28.7055L28.9483 26.8229C27.7453 26.3916 26.797 25.9284 26.0816 25.4444L24.961 27.101ZM28.2733 28.7055C29.5841 29.1754 31.1233 29.5894 32.884 29.9511L33.2865 27.9921C31.5907 27.6436 30.147 27.2526 28.9483 26.8229L28.2733 28.7055ZM32.8757 29.9494L38.8416 31.2278L39.2607 29.2722L33.2948 27.9938L32.8757 29.9494ZM38.844 31.2283C42.8104 32.0683 46.1733 33.1701 48.9467 34.5224L49.8232 32.7247C46.8675 31.2835 43.3411 30.1363 39.2583 29.2717L38.844 31.2283ZM48.9467 34.5224C51.7276 35.8784 53.9693 37.4595 55.6957 39.2531L57.1367 37.8662C55.2173 35.872 52.7715 34.1623 49.8232 32.7247L48.9467 34.5224ZM55.7001 39.2576C57.4288 41.0313 58.6877 43.0182 59.4892 45.2224L61.3688 44.5389C60.4658 42.0556 59.0494 39.8286 57.1323 37.8617L55.7001 39.2576ZM59.4923 45.2308C60.3232 47.4542 60.7557 49.894 60.7784 52.5597L62.7784 52.5426C62.7538 49.6685 62.2866 46.9947 61.3657 44.5306L59.4923 45.2308ZM60.7784 52.5462C60.7556 57.1587 59.6054 60.9964 57.378 64.1148L59.0055 65.2773C61.5129 61.7668 62.7539 57.508 62.7784 52.5561L60.7784 52.5462ZM57.378 64.1148C55.1403 67.2476 51.9232 69.6599 47.6702 71.3291L48.4009 73.1908C52.9547 71.4036 56.5084 68.7732 59.0055 65.2773L57.378 64.1148ZM47.6685 71.3297C43.4354 73.0001 38.2993 73.8523 32.233 73.8523V75.8523C38.4773 75.8523 43.8761 74.9763 48.4026 73.1901L47.6685 71.3297ZM32.233 73.8523C26.0082 73.8523 20.6223 72.9311 16.0536 71.1174L15.3157 72.9763C20.1694 74.9031 25.8157 75.8523 32.233 75.8523V73.8523ZM16.0552 71.1181C11.5394 69.3163 8.06047 66.5622 5.57765 62.8606L3.91667 63.9746C6.64218 68.0381 10.4549 71.0369 15.3141 72.9757L16.0552 71.1181ZM5.58154 62.8664C3.13619 59.1648 1.86404 54.3751 1.8409 48.4279L-0.159083 48.4357C-0.134876 54.6571 1.19714 59.858 3.91278 63.9688L5.58154 62.8664ZM0.840909 49.4318H19.5909V47.4318H0.840909V49.4318ZM18.5923 48.4849C18.7179 50.8466 19.3125 52.8978 20.4239 54.5913L22.096 53.494C21.2187 52.1572 20.7006 50.4678 20.5895 48.3787L18.5923 48.4849ZM20.4239 54.5913C21.5339 56.2828 23.0894 57.5523 25.052 58.4045L25.8486 56.57C24.2127 55.8596 22.9746 54.8327 22.096 53.494L20.4239 54.5913ZM25.0564 58.4064C27.0321 59.2531 29.3386 59.6591 31.9489 59.6591V57.6591C29.5402 57.6591 27.5143 57.2838 25.8442 56.5681L25.0564 58.4064ZM31.9489 59.6591C34.1306 59.6591 36.0196 59.3904 37.5843 58.8167L36.8958 56.939C35.6196 57.4069 33.9811 57.6591 31.9489 57.6591V59.6591ZM37.5843 58.8167C39.1293 58.2502 40.3781 57.4364 41.2544 56.3339L39.6888 55.0894C39.0973 55.8335 38.1918 56.4638 36.8958 56.939L37.5843 58.8167ZM41.2544 56.3339C42.1252 55.2383 42.5797 53.973 42.6078 52.5711L40.6082 52.5311C40.5888 53.4967 40.2857 54.3384 39.6888 55.0894L41.2544 56.3339ZM42.6077 52.5299C42.5792 51.1908 42.1304 49.9965 41.2664 48.9884L39.7478 50.29C40.3043 50.9391 40.5893 51.6861 40.6082 52.5724L42.6077 52.5299ZM41.2859 49.0119C40.4517 47.9764 39.1441 47.1377 37.4836 46.4438L36.7124 48.2891C38.2243 48.921 39.1894 49.5974 39.7283 50.2665L41.2859 49.0119ZM37.4952 46.4488C35.8259 45.7262 33.6138 45.0706 30.8847 44.4721L30.4562 46.4257C33.1248 47.0109 35.1978 47.6336 36.7008 48.2842L37.4952 46.4488ZM30.8813 44.4713L23.637 42.9088L23.2153 44.8639L30.4596 46.4264L30.8813 44.4713ZM23.6381 42.9091C17.3118 41.5368 12.4057 39.2632 8.85196 36.1395L7.53157 37.6417C11.4116 41.0522 16.6617 43.4423 23.2142 44.8636L23.6381 42.9091ZM8.85702 36.144C5.41074 33.0733 3.66482 28.8783 3.68749 23.436L1.68751 23.4277C1.66284 29.349 3.58642 34.1265 7.52651 37.6372L8.85702 36.144ZM3.68749 23.4267C3.6648 19.0027 4.84064 15.1766 7.19253 11.9063L5.56883 10.7386C2.94913 14.3812 1.66285 18.628 1.68751 23.4369L3.68749 23.4267ZM7.1918 11.9073C9.58403 8.5898 12.9025 5.98499 17.1871 4.10616L16.3839 2.27452C11.8144 4.27826 8.19628 7.09485 5.56957 10.7376L7.1918 11.9073ZM17.1853 4.10694C21.4889 2.22986 26.4506 1.27841 32.0909 1.27841V-0.721594C26.2255 -0.721594 20.9837 0.268242 16.3857 2.27373L17.1853 4.10694ZM32.0909 1.27841C37.8526 1.27841 42.7822 2.24268 46.9085 4.13484L47.7421 2.31686C43.2983 0.2791 38.0716 -0.721594 32.0909 -0.721594V1.27841ZM46.9085 4.13484C51.04 6.02943 54.1881 8.6808 56.3941 12.0799L58.0718 10.9911C55.6377 7.2406 52.1806 4.3522 47.7421 2.31686L46.9085 4.13484ZM56.3983 12.0864C58.6228 15.4567 59.7613 19.4168 59.7841 24.005L61.7841 23.995C61.7596 19.0661 60.5306 14.7166 58.0676 10.9847L56.3983 12.0864ZM60.7841 23H41.892V25H60.7841V23ZM69.2891 74H68.2891V75H69.2891V74ZM69.2891 1.27273V0.272725H68.2891V1.27273H69.2891ZM89.0334 1.27273H90.0334V0.272725H89.0334V1.27273ZM89.0334 30.6761H88.0334V31.6761H89.0334V30.6761ZM90.0277 30.6761V31.6761H90.5301L90.83 31.273L90.0277 30.6761ZM111.903 1.27273V0.272725H111.4L111.1 0.67583L111.903 1.27273ZM134.914 1.27273L135.711 1.87719L136.928 0.272725H134.914V1.27273ZM110.34 33.6591L109.544 33.0546L109.127 33.6034L109.492 34.188L110.34 33.6591ZM135.482 74V75H137.284L136.331 73.4711L135.482 74ZM111.903 74L111.045 74.5138L111.336 75H111.903V74ZM95.5675 46.7273L96.4254 46.2134L95.6692 44.951L94.7739 46.1188L95.5675 46.7273ZM89.0334 55.25L88.2398 54.6416L88.0334 54.9108V55.25H89.0334ZM89.0334 74V75H90.0334V74H89.0334ZM70.2891 74V1.27273H68.2891V74H70.2891ZM69.2891 2.27273H89.0334V0.272725H69.2891V2.27273ZM88.0334 1.27273V30.6761H90.0334V1.27273H88.0334ZM89.0334 31.6761H90.0277V29.6761H89.0334V31.6761ZM90.83 31.273L112.705 1.86962L111.1 0.67583L89.2254 30.0792L90.83 31.273ZM111.903 2.27273H134.914V0.272725H111.903V2.27273ZM134.117 0.668262L109.544 33.0546L111.137 34.2636L135.711 1.87719L134.117 0.668262ZM109.492 34.188L134.634 74.5289L136.331 73.4711L111.189 33.1302L109.492 34.188ZM135.482 73H111.903V75H135.482V73ZM112.761 73.4862L96.4254 46.2134L94.7096 47.2411L111.045 74.5138L112.761 73.4862ZM94.7739 46.1188L88.2398 54.6416L89.827 55.8584L96.3611 47.3357L94.7739 46.1188ZM88.0334 55.25V74H90.0334V55.25H88.0334ZM89.0334 73H69.2891V75H89.0334V73ZM160.518 1.27273H161.518V0.272725H160.518V1.27273ZM160.518 74V75H161.518V74H160.518ZM140.773 74H139.773V75H140.773V74ZM140.773 1.27273V0.272725H139.773V1.27273H140.773ZM159.518 1.27273V74H161.518V1.27273H159.518ZM160.518 73H140.773V75H160.518V73ZM141.773 74V1.27273H139.773V74H141.773ZM140.773 2.27273H160.518V0.272725H140.773V2.27273ZM169.875 74H168.875V75H169.875V74ZM169.875 1.27273V0.272725H168.875V1.27273H169.875ZM189.619 1.27273H190.619V0.272725H189.619V1.27273ZM189.619 58.0909H188.619V59.0909H189.619V58.0909ZM219.023 58.0909H220.023V57.0909H219.023V58.0909ZM219.023 74V75H220.023V74H219.023ZM170.875 74V1.27273H168.875V74H170.875ZM169.875 2.27273H189.619V0.272725H169.875V2.27273ZM188.619 1.27273V58.0909H190.619V1.27273H188.619ZM189.619 59.0909H219.023V57.0909H189.619V59.0909ZM218.023 58.0909V74H220.023V58.0909H218.023ZM219.023 73H169.875V75H219.023V73ZM227.004 74H226.004V75H227.004V74ZM227.004 1.27273V0.272725H226.004V1.27273H227.004ZM246.748 1.27273H247.748V0.272725H246.748V1.27273ZM246.748 58.0909H245.748V59.0909H246.748V58.0909ZM276.152 58.0909H277.152V57.0909H276.152V58.0909ZM276.152 74V75H277.152V74H276.152ZM228.004 74V1.27273H226.004V74H228.004ZM227.004 2.27273H246.748V0.272725H227.004V2.27273ZM245.748 1.27273V58.0909H247.748V1.27273H245.748ZM246.748 59.0909H276.152V57.0909H246.748V59.0909ZM275.152 58.0909V74H277.152V58.0909H275.152ZM276.152 73H227.004V75H276.152V73ZM323.337 24L322.341 24.0797L322.414 25H323.337V24ZM320.674 18.4602L320.027 19.2228L320.033 19.2275L320.674 18.4602ZM308.529 17.2173L308.876 18.1551L308.886 18.1515L308.529 17.2173ZM305.688 19.1705L304.885 18.5741L304.885 18.5741L305.688 19.1705ZM304.729 22.0114L305.728 22.0653L305.729 22.0495L305.729 22.0336L304.729 22.0114ZM305.191 24.3906L304.297 24.8378L304.306 24.856L304.315 24.8737L305.191 24.3906ZM306.967 26.2727L306.39 27.0897L306.398 27.0954L306.406 27.101L306.967 26.2727ZM314.531 28.9716L314.74 27.9938L314.732 27.9921L314.531 28.9716ZM320.496 30.25L320.287 31.2278L320.289 31.2283L320.496 30.25ZM330.83 33.6236L330.392 34.5224L330.83 33.6236ZM337.862 38.5597L337.141 39.2531L337.145 39.2576L337.862 38.5597ZM341.874 44.8807L340.934 45.2224L340.938 45.2308L341.874 44.8807ZM343.224 52.5511L344.224 52.5561L344.224 52.5426L343.224 52.5511ZM339.637 64.696L340.451 65.2773L340.451 65.2773L339.637 64.696ZM329.481 72.2599L329.115 71.3291L329.114 71.3297L329.481 72.2599ZM297.13 72.0469L296.759 72.9757L296.761 72.9763L297.13 72.0469ZM286.192 63.4176L285.358 63.9688L285.362 63.9746L286.192 63.4176ZM282.286 48.4318V47.4318H281.282L281.286 48.4357L282.286 48.4318ZM301.036 48.4318L302.035 48.3787L301.984 47.4318H301.036V48.4318ZM302.705 54.0426L301.869 54.5913L301.869 54.5913L302.705 54.0426ZM306.896 57.4872L306.497 58.4045L306.502 58.4064L306.896 57.4872ZM318.685 57.8778L319.03 58.8167L319.03 58.8167L318.685 57.8778ZM321.917 55.7116L322.7 56.3339L322.7 56.3339L321.917 55.7116ZM323.053 52.5511L324.053 52.5711L324.053 52.5505L324.053 52.5299L323.053 52.5511ZM321.952 49.6392L321.174 50.2665L321.183 50.2784L321.193 50.29L321.952 49.6392ZM318.543 47.3665L318.146 48.2843L318.158 48.2891L318.543 47.3665ZM312.116 45.4489L312.33 44.4721L312.327 44.4713L312.116 45.4489ZM304.871 43.8864L304.659 44.8636L304.661 44.8639L304.871 43.8864ZM289.637 36.8906L288.972 37.6373L288.977 37.6417L289.637 36.8906ZM284.133 23.4318L285.133 23.436L285.133 23.4267L284.133 23.4318ZM287.826 11.3224L287.015 10.7376L287.014 10.7386L287.826 11.3224ZM298.231 3.19034L297.831 2.27373L297.829 2.27452L298.231 3.19034ZM328.771 3.22585L328.354 4.13484L328.354 4.13484L328.771 3.22585ZM338.678 11.5355L337.839 12.0799L337.844 12.0864L338.678 11.5355ZM342.229 24V25H343.234L343.229 23.995L342.229 24ZM324.334 23.9203C324.127 21.3286 323.139 19.2169 321.315 17.6929L320.033 19.2275C321.382 20.3551 322.169 21.9366 322.341 24.0797L324.334 23.9203ZM321.321 17.6977C319.501 16.1531 316.843 15.4716 313.536 15.4716V17.4716C316.621 17.4716 318.722 18.1158 320.027 19.2227L321.321 17.6977ZM313.536 15.4716C311.429 15.4716 309.628 15.7273 308.172 16.2831L308.886 18.1515C310.034 17.713 311.571 17.4716 313.536 17.4716V15.4716ZM308.182 16.2796C306.779 16.7992 305.648 17.5474 304.885 18.5741L306.491 19.7668C306.959 19.1363 307.723 18.5824 308.876 18.1551L308.182 16.2796ZM304.885 18.5741C304.142 19.5747 303.758 20.7238 303.73 21.9891L305.729 22.0336C305.748 21.1682 306.003 20.4234 306.491 19.7668L304.885 18.5741ZM303.731 21.9574C303.675 22.988 303.856 23.9566 304.297 24.8378L306.085 23.9434C305.816 23.4042 305.689 22.7866 305.728 22.0653L303.731 21.9574ZM304.315 24.8737C304.784 25.7222 305.492 26.456 306.39 27.0897L307.543 25.4558C306.831 24.953 306.356 24.4321 306.067 23.9075L304.315 24.8737ZM306.406 27.101C307.301 27.7061 308.412 28.2372 309.719 28.7055L310.394 26.8229C309.191 26.3916 308.242 25.9284 307.527 25.4444L306.406 27.101ZM309.719 28.7055C311.029 29.1754 312.569 29.5894 314.329 29.9511L314.732 27.9921C313.036 27.6436 311.592 27.2526 310.394 26.8229L309.719 28.7055ZM314.321 29.9494L320.287 31.2278L320.706 29.2722L314.74 27.9938L314.321 29.9494ZM320.289 31.2283C324.256 32.0683 327.619 33.1701 330.392 34.5224L331.269 32.7247C328.313 31.2835 324.786 30.1363 320.704 29.2717L320.289 31.2283ZM330.392 34.5224C333.173 35.8784 335.415 37.4595 337.141 39.2531L338.582 37.8662C336.663 35.872 334.217 34.1623 331.269 32.7247L330.392 34.5224ZM337.145 39.2576C338.874 41.0313 340.133 43.0182 340.935 45.2224L342.814 44.5389C341.911 42.0556 340.495 39.8286 338.578 37.8617L337.145 39.2576ZM340.938 45.2308C341.769 47.4542 342.201 49.894 342.224 52.5597L344.224 52.5426C344.199 49.6685 343.732 46.9947 342.811 44.5306L340.938 45.2308ZM342.224 52.5462C342.201 57.1587 341.051 60.9964 338.823 64.1148L340.451 65.2773C342.958 61.7668 344.199 57.508 344.224 52.5561L342.224 52.5462ZM338.823 64.1148C336.586 67.2476 333.368 69.6599 329.115 71.3291L329.846 73.1908C334.4 71.4036 337.954 68.7732 340.451 65.2773L338.823 64.1148ZM329.114 71.3297C324.881 73.0001 319.745 73.8523 313.678 73.8523V75.8523C319.923 75.8523 325.321 74.9763 329.848 73.1901L329.114 71.3297ZM313.678 73.8523C307.453 73.8523 302.068 72.9311 297.499 71.1174L296.761 72.9763C301.615 74.9031 307.261 75.8523 313.678 75.8523V73.8523ZM297.501 71.1181C292.985 69.3163 289.506 66.5622 287.023 62.8606L285.362 63.9746C288.087 68.0381 291.9 71.0369 296.759 72.9757L297.501 71.1181ZM287.027 62.8664C284.582 59.1648 283.309 54.3751 283.286 48.4279L281.286 48.4357C281.31 54.6571 282.642 59.858 285.358 63.9688L287.027 62.8664ZM282.286 49.4318H301.036V47.4318H282.286V49.4318ZM300.038 48.4849C300.163 50.8466 300.758 52.8978 301.869 54.5913L303.541 53.494C302.664 52.1572 302.146 50.4678 302.035 48.3787L300.038 48.4849ZM301.869 54.5913C302.979 56.2828 304.535 57.5523 306.497 58.4045L307.294 56.57C305.658 55.8596 304.42 54.8327 303.541 53.494L301.869 54.5913ZM306.502 58.4064C308.477 59.2531 310.784 59.6591 313.394 59.6591V57.6591C310.986 57.6591 308.96 57.2838 307.29 56.5681L306.502 58.4064ZM313.394 59.6591C315.576 59.6591 317.465 59.3904 319.03 58.8167L318.341 56.939C317.065 57.4069 315.426 57.6591 313.394 57.6591V59.6591ZM319.03 58.8167C320.575 58.2502 321.823 57.4364 322.7 56.3339L321.134 55.0894C320.543 55.8335 319.637 56.4638 318.341 56.939L319.03 58.8167ZM322.7 56.3339C323.571 55.2383 324.025 53.973 324.053 52.5711L322.053 52.5311C322.034 53.4967 321.731 54.3384 321.134 55.0894L322.7 56.3339ZM324.053 52.5299C324.025 51.1908 323.576 49.9965 322.712 48.9884L321.193 50.29C321.75 50.9391 322.035 51.6861 322.053 52.5724L324.053 52.5299ZM322.731 49.0119C321.897 47.9764 320.589 47.1377 318.929 46.4438L318.158 48.2891C319.67 48.921 320.635 49.5974 321.174 50.2665L322.731 49.0119ZM318.941 46.4488C317.271 45.7262 315.059 45.0706 312.33 44.4721L311.902 46.4257C314.57 47.0109 316.643 47.6336 318.146 48.2842L318.941 46.4488ZM312.327 44.4713L305.082 42.9088L304.661 44.8639L311.905 46.4264L312.327 44.4713ZM305.083 42.9091C298.757 41.5368 293.851 39.2632 290.297 36.1395L288.977 37.6417C292.857 41.0522 298.107 43.4423 304.659 44.8636L305.083 42.9091ZM290.302 36.144C286.856 33.0733 285.11 28.8783 285.133 23.436L283.133 23.4277C283.108 29.349 285.032 34.1265 288.972 37.6372L290.302 36.144ZM285.133 23.4267C285.11 19.0027 286.286 15.1766 288.638 11.9063L287.014 10.7386C284.394 14.3812 283.108 18.628 283.133 23.4369L285.133 23.4267ZM288.637 11.9073C291.029 8.5898 294.348 5.98499 298.632 4.10616L297.829 2.27452C293.26 4.27826 289.642 7.09485 287.015 10.7376L288.637 11.9073ZM298.631 4.10694C302.934 2.22986 307.896 1.27841 313.536 1.27841V-0.721594C307.671 -0.721594 302.429 0.268242 297.831 2.27373L298.631 4.10694ZM313.536 1.27841C319.298 1.27841 324.227 2.24268 328.354 4.13484L329.187 2.31686C324.744 0.2791 319.517 -0.721594 313.536 -0.721594V1.27841ZM328.354 4.13484C332.485 6.02943 335.633 8.6808 337.839 12.0799L339.517 10.9911C337.083 7.2406 333.626 4.3522 329.187 2.31686L328.354 4.13484ZM337.844 12.0864C340.068 15.4567 341.207 19.4168 341.229 24.005L343.229 23.995C343.205 19.0661 341.976 14.7166 339.513 10.9847L337.844 12.0864ZM342.229 23H323.337V25H342.229V23Z" fill="#716969" mask="url(#path-1-outside-1_1_4)"/>
</svg>
